<svg width="500" height="500" viewBox="0 0 500 500" fill="none" xmlns="http://www.w3.org/2000/svg">
<path d="M436.937 419.903H64.988C64.988 419.903 53.194 399.945 45.03 360.028C36.865 320.111 75.875 334.627 85.854 300.153C95.833 265.68 52.288 272.937 55.917 225.763C59.546 178.589 119.421 177.682 148.451 184.032C177.481 190.382 173.853 168.61 207.419 132.322C240.985 96.0338 291.788 99.6628 317.189 127.786C342.591 155.909 334.426 184.939 366.178 184.939C397.93 184.939 426.96 191.289 446.011 252.071C465.062 312.853 430.239 340.63 430.867 368.019C431.494 395.409 436.937 419.903 436.937 419.903Z" fill="#2FC765"/>
<path opacity="0.7" d="M436.937 419.903H64.988C64.988 419.903 53.194 399.945 45.03 360.028C36.865 320.111 75.875 334.627 85.854 300.153C95.833 265.68 52.288 272.937 55.917 225.763C59.546 178.589 119.421 177.682 148.451 184.032C177.481 190.382 173.853 168.61 207.419 132.322C240.985 96.0338 291.788 99.6628 317.189 127.786C342.591 155.909 334.426 184.939 366.178 184.939C397.93 184.939 426.96 191.289 446.011 252.071C465.062 312.853 430.239 340.63 430.867 368.019C431.494 395.409 436.937 419.903 436.937 419.903Z" fill="white"/>
<path d="M215.414 419.903C206.298 406.028 167.371 347.712 156.034 346.152C144.939 344.626 105.529 403.602 94.867 419.903H215.414Z" fill="#263238" stroke="#263238" stroke-miterlimit="10" stroke-linecap="round" stroke-linejoin="round"/>
<path d="M265.284 79.1279V213.622" stroke="#263238" stroke-width="3" stroke-miterlimit="10" stroke-linecap="round" stroke-linejoin="round"/>
<path d="M281.259 82.7349V213.622" stroke="#263238" stroke-width="3" stroke-miterlimit="10" stroke-linecap="round" stroke-linejoin="round"/>
<path d="M298.779 154.363V281.127" stroke="#263238" stroke-width="3" stroke-miterlimit="10" stroke-linecap="round" stroke-linejoin="round"/>
<path d="M317.33 82.7349V281.127" stroke="#263238" stroke-width="3" stroke-miterlimit="10" stroke-linecap="round" stroke-linejoin="round"/>
<path d="M335.881 82.7349V217.23" stroke="#263238" stroke-width="3" stroke-miterlimit="10" stroke-linecap="round" stroke-linejoin="round"/>
<path d="M251.371 97.1641H336.396" stroke="#263238" stroke-width="3" stroke-miterlimit="10" stroke-linecap="round" stroke-linejoin="round"/>
<path d="M251.371 127.051H343.583" stroke="#263238" stroke-width="3" stroke-miterlimit="10" stroke-linecap="round" stroke-linejoin="round"/>
<path d="M249.825 154.363H352.371" stroke="#263238" stroke-width="3" stroke-miterlimit="10" stroke-linecap="round" stroke-linejoin="round"/>
<path d="M248.279 184.766H352.371" stroke="#263238" stroke-width="3" stroke-miterlimit="10" stroke-linecap="round" stroke-linejoin="round"/>
<path d="M267.861 217.745H346.702" stroke="#263238" stroke-width="3" stroke-miterlimit="10" stroke-linecap="round" stroke-linejoin="round"/>
<path d="M288.473 249.694H340.003" stroke="#263238" stroke-width="3" stroke-miterlimit="10" stroke-linecap="round" stroke-linejoin="round"/>
<path d="M152.807 91.9038L170.999 106.141" stroke="#263238" stroke-width="2" stroke-miterlimit="10" stroke-linecap="round" stroke-linejoin="round"/>
<path d="M189.191 76.876L195.518 86.367" stroke="#263238" stroke-width="2" stroke-miterlimit="10" stroke-linecap="round" stroke-linejoin="round"/>
<path d="M221.62 53.938L227.156 71.339" stroke="#263238" stroke-width="2" stroke-miterlimit="10" stroke-linecap="round" stroke-linejoin="round"/>
<path d="M325.396 277.539H295.366V206.206H254.699V79.8848C199.932 80.4218 155.699 124.978 155.699 179.872C155.699 196.757 159.89 212.66 167.279 226.609C170.538 234.196 178.204 252.791 185.875 276.827C192.956 299.015 196.664 321.331 196.664 324.703C196.664 325.029 196.658 325.373 196.646 325.73C196.511 329.958 199.886 333.469 204.116 333.469H249.422H262.071H307.377C311.607 333.469 314.982 329.958 314.847 325.73C314.836 325.373 314.829 325.029 314.829 324.703C314.83 321.368 318.461 299.49 325.396 277.539Z" fill="#2FC765" stroke="#263238" stroke-width="2" stroke-miterlimit="10" stroke-linecap="round" stroke-linejoin="round"/>
<path d="M220.806 95.9629C223.671 94.6779 226.645 93.5239 229.702 92.5649" stroke="#263238" stroke-width="2" stroke-miterlimit="10" stroke-linecap="round" stroke-linejoin="round"/>
<path d="M187.506 121.335C187.506 121.335 195.658 108.388 213.569 99.5859" stroke="#263238" stroke-width="2" stroke-miterlimit="10" stroke-linecap="round" stroke-linejoin="round"/>
<path d="M189.651 265.263C193.364 277.384 198.268 294.169 199.973 303.546C202.85 319.37 200.932 327.521 207.166 328.96" stroke="#263238" stroke-width="2" stroke-miterlimit="10" stroke-linecap="round" stroke-linejoin="round"/>
<path d="M185.109 250.801C185.109 250.801 186.164 254.05 187.723 259.035" stroke="#263238" stroke-width="2" stroke-miterlimit="10" stroke-linecap="round" stroke-linejoin="round"/>
<path d="M249.422 332.469V236.872C249.422 236.872 253.365 211.872 240.365 211.872C227.365 211.872 228.365 224.872 243.365 238.872C258.365 252.872 281.365 239.872 284.365 228.872C287.365 217.872 279.365 212.872 274.365 221.872C269.365 230.872 274.365 332.872 274.365 332.872" stroke="#263238" stroke-width="2" stroke-miterlimit="10" stroke-linecap="round" stroke-linejoin="round"/>
<path d="M309.99 332.859H202.079V357.899H309.99V332.859Z" fill="white" stroke="#263238" stroke-width="2" stroke-miterlimit="10" stroke-linecap="round" stroke-linejoin="round"/>
<path d="M309.99 363.861H202.079V388.901H309.99V363.861Z" fill="white" stroke="#263238" stroke-width="2" stroke-miterlimit="10" stroke-linecap="round" stroke-linejoin="round"/>
<path d="M309.99 357.899H202.079V363.861H309.99V357.899Z" fill="#263238" stroke="#263238" stroke-miterlimit="10" stroke-linecap="round" stroke-linejoin="round"/>
<path d="M309.99 394.863H202.079V419.903H309.99V394.863Z" fill="white" stroke="#263238" stroke-width="2" stroke-miterlimit="10" stroke-linecap="round" stroke-linejoin="round"/>
<path d="M298.698 354.552H306.72" stroke="#263238" stroke-miterlimit="10" stroke-linecap="round" stroke-linejoin="round"/>
<path d="M206.32 354.552H294.836" stroke="#263238" stroke-miterlimit="10" stroke-linecap="round" stroke-linejoin="round"/>
<path d="M277.901 386.045H303.749" stroke="#263238" stroke-miterlimit="10" stroke-linecap="round" stroke-linejoin="round"/>
<path d="M222.344 386.045H274.93" stroke="#263238" stroke-miterlimit="10" stroke-linecap="round" stroke-linejoin="round"/>
<path d="M213.728 386.045H218.185" stroke="#263238" stroke-miterlimit="10" stroke-linecap="round" stroke-linejoin="round"/>
<path d="M309.99 388.901H202.079V394.863H309.99V388.901Z" fill="#263238" stroke="#263238" stroke-miterlimit="10" stroke-linecap="round" stroke-linejoin="round"/>
<path d="M253.069 400.349H216.126V419.58H253.069V400.349Z" fill="#2FC765" stroke="#263238" stroke-miterlimit="10" stroke-linecap="round" stroke-linejoin="round"/>
<path d="M301.146 400.349H264.203V419.58H301.146V400.349Z" fill="#2FC765" stroke="#263238" stroke-miterlimit="10" stroke-linecap="round" stroke-linejoin="round"/>
<path d="M334.365 419.903C327.287 413.691 297.061 387.583 288.259 386.885C279.644 386.202 249.044 412.605 240.765 419.903H334.365Z" fill="#263238" stroke="#263238" stroke-miterlimit="10" stroke-linecap="round" stroke-linejoin="round"/>
<path d="M451.08 419.903H459.76" stroke="#263238" stroke-miterlimit="10" stroke-linecap="round" stroke-linejoin="round"/>
<path d="M53.742 419.903H442.4" stroke="#263238" stroke-miterlimit="10" stroke-linecap="round" stroke-linejoin="round"/>
<path d="M40.24 419.903H46.991" stroke="#263238" stroke-miterlimit="10" stroke-linecap="round" stroke-linejoin="round"/>
<path d="M433.613 362.831H407.662V399.225H418.414H433.613H444.365V381.028L433.613 362.831Z" fill="#263238" stroke="#263238" stroke-miterlimit="10" stroke-linecap="round" stroke-linejoin="round"/>
<path d="M444.365 399.225H432.475V407.496H444.365V399.225Z" fill="white" stroke="#263238" stroke-miterlimit="10" stroke-linecap="round" stroke-linejoin="round"/>
<path d="M388.365 398.817C388.365 398.817 401.365 391.817 396.865 356.817L380.365 347.817L351.865 343.317L326.365 344.317V358.817C326.365 358.817 340.865 371.317 342.365 375.317C343.865 379.317 343.865 383.817 343.865 383.817V397.817L388.365 398.817Z" fill="#2FC765" stroke="#263238" stroke-miterlimit="10" stroke-linecap="round" stroke-linejoin="round"/>
<path d="M396.865 356.817L388.365 398.817" stroke="#263238" stroke-miterlimit="10" stroke-linecap="round" stroke-linejoin="round"/>
<path d="M380.365 347.817L370.865 398.817" stroke="#263238" stroke-miterlimit="10" stroke-linecap="round" stroke-linejoin="round"/>
<path d="M351.865 343.317L344.865 381.317" stroke="#263238" stroke-miterlimit="10" stroke-linecap="round" stroke-linejoin="round"/>
<path d="M327.365 356.817C327.365 356.817 343.865 363.817 350.365 368.317C356.865 372.817 355.865 382.317 355.865 382.317" stroke="#263238" stroke-miterlimit="10" stroke-linecap="round" stroke-linejoin="round"/>
<path d="M407.894 399.493H330.363V405.997H407.894V399.493Z" fill="white" stroke="#263238" stroke-miterlimit="10" stroke-linecap="round" stroke-linejoin="round"/>
<path d="M423.365 382.817H439.559L430.865 367.817H423.365V382.817Z" fill="white" stroke="#263238" stroke-miterlimit="10" stroke-linecap="round" stroke-linejoin="round"/>
<path d="M420.865 367.817H413.865V382.817H420.865V367.817Z" fill="white" stroke="#263238" stroke-miterlimit="10" stroke-linecap="round" stroke-linejoin="round"/>
<path d="M377.964 399.225H330.767V410.496H377.964V399.225Z" fill="white" stroke="#263238" stroke-miterlimit="10" stroke-linecap="round" stroke-linejoin="round"/>
<path d="M422.663 419.757C428.058 418.783 431.642 413.62 430.668 408.225C429.693 402.83 424.53 399.246 419.135 400.221C413.741 401.195 410.157 406.358 411.131 411.753C412.105 417.147 417.268 420.731 422.663 419.757Z" fill="#263238" stroke="#263238" stroke-miterlimit="10" stroke-linecap="round" stroke-linejoin="round"/>
<path d="M420.896 415.768C424.094 415.768 426.686 413.175 426.686 409.978C426.686 406.78 424.094 404.188 420.896 404.188C417.698 404.188 415.106 406.78 415.106 409.978C415.106 413.175 417.698 415.768 420.896 415.768Z" fill="white" stroke="#263238" stroke-miterlimit="10" stroke-linecap="round" stroke-linejoin="round"/>
<path d="M346.134 419.748C351.533 418.792 355.134 413.642 354.179 408.244C353.223 402.846 348.072 399.244 342.674 400.2C337.276 401.155 333.675 406.306 334.63 411.704C335.586 417.102 340.736 420.703 346.134 419.748Z" fill="#263238" stroke="#263238" stroke-miterlimit="10" stroke-linecap="round" stroke-linejoin="round"/>
<path d="M344.396 415.768C347.594 415.768 350.186 413.176 350.186 409.978C350.186 406.78 347.594 404.188 344.396 404.188C341.198 404.188 338.606 406.78 338.606 409.978C338.606 413.176 341.198 415.768 344.396 415.768Z" fill="white" stroke="#263238" stroke-miterlimit="10" stroke-linecap="round" stroke-linejoin="round"/>
<path d="M375.068 417.282C379.106 413.575 379.374 407.296 375.667 403.258C371.959 399.22 365.68 398.952 361.642 402.659C357.604 406.367 357.336 412.646 361.044 416.684C364.751 420.722 371.03 420.99 375.068 417.282Z" fill="#263238" stroke="#263238" stroke-miterlimit="10" stroke-linecap="round" stroke-linejoin="round"/>
<path d="M368.365 415.768C371.563 415.768 374.155 413.175 374.155 409.978C374.155 406.78 371.563 404.188 368.365 404.188C365.167 404.188 362.575 406.78 362.575 409.978C362.575 413.175 365.167 415.768 368.365 415.768Z" fill="white" stroke="#263238" stroke-miterlimit="10" stroke-linecap="round" stroke-linejoin="round"/>
<path d="M365.115 381.817H340.115C338.32 381.817 336.865 383.272 336.865 385.067V395.567C336.865 397.362 338.32 398.817 340.115 398.817H365.115C366.91 398.817 368.365 397.362 368.365 395.567V385.067C368.365 383.272 366.91 381.817 365.115 381.817Z" fill="#263238" stroke="#263238" stroke-miterlimit="10" stroke-linecap="round" stroke-linejoin="round"/>
<path d="M324.365 398.817V349.372H334.365V398.817" stroke="#263238" stroke-miterlimit="10" stroke-linecap="round" stroke-linejoin="round"/>
<path d="M324.437 355.923H334.263" stroke="#263238" stroke-miterlimit="10" stroke-linecap="round" stroke-linejoin="round"/>
<path d="M324.437 363.644H334.263" stroke="#263238" stroke-miterlimit="10" stroke-linecap="round" stroke-linejoin="round"/>
<path d="M324.437 371.365H334.263" stroke="#263238" stroke-miterlimit="10" stroke-linecap="round" stroke-linejoin="round"/>
<path d="M324.437 379.086H334.263" stroke="#263238" stroke-miterlimit="10" stroke-linecap="round" stroke-linejoin="round"/>
<path d="M324.437 386.807H334.263" stroke="#263238" stroke-miterlimit="10" stroke-linecap="round" stroke-linejoin="round"/>
<path d="M324.437 394.528H334.263" stroke="#263238" stroke-miterlimit="10" stroke-linecap="round" stroke-linejoin="round"/>
<path d="M124.365 420.872H106.365V106.872L124.365 127.803V420.872Z" stroke="#263238" stroke-miterlimit="10" stroke-linecap="round" stroke-linejoin="round"/>
<path d="M106.536 354.872H124.195L106.536 337.803H124.195L106.536 354.872Z" stroke="#263238" stroke-miterlimit="10" stroke-linecap="round" stroke-linejoin="round"/>
<path d="M106.536 337.372H124.195L106.536 320.303H124.195L106.536 337.372Z" stroke="#263238" stroke-miterlimit="10" stroke-linecap="round" stroke-linejoin="round"/>
<path d="M106.536 319.872H124.195L106.536 302.803H124.195L106.536 319.872Z" stroke="#263238" stroke-miterlimit="10" stroke-linecap="round" stroke-linejoin="round"/>
<path d="M106.536 302.372H124.195L106.536 285.303H124.195L106.536 302.372Z" stroke="#263238" stroke-miterlimit="10" stroke-linecap="round" stroke-linejoin="round"/>
<path d="M106.536 284.872H124.195L106.536 267.803H124.195L106.536 284.872Z" stroke="#263238" stroke-miterlimit="10" stroke-linecap="round" stroke-linejoin="round"/>
<path d="M106.536 267.372H124.195L106.536 250.303H124.195L106.536 267.372Z" stroke="#263238" stroke-miterlimit="10" stroke-linecap="round" stroke-linejoin="round"/>
<path d="M106.536 249.872H124.195L106.536 232.803H124.195L106.536 249.872Z" stroke="#263238" stroke-miterlimit="10" stroke-linecap="round" stroke-linejoin="round"/>
<path d="M106.536 232.372H124.195L106.536 215.303H124.195L106.536 232.372Z" stroke="#263238" stroke-miterlimit="10" stroke-linecap="round" stroke-linejoin="round"/>
<path d="M106.536 214.872H124.195L106.536 197.803H124.195L106.536 214.872Z" stroke="#263238" stroke-miterlimit="10" stroke-linecap="round" stroke-linejoin="round"/>
<path d="M106.536 197.372H124.195L106.536 180.303H124.195L106.536 197.372Z" stroke="#263238" stroke-miterlimit="10" stroke-linecap="round" stroke-linejoin="round"/>
<path d="M106.536 179.872H124.195L106.536 162.803H124.195L106.536 179.872Z" stroke="#263238" stroke-miterlimit="10" stroke-linecap="round" stroke-linejoin="round"/>
<path d="M106.536 162.372H124.195L106.536 145.303H124.195L106.536 162.372Z" stroke="#263238" stroke-miterlimit="10" stroke-linecap="round" stroke-linejoin="round"/>
<path d="M106.536 144.872H124.195L106.536 127.803H124.195L106.536 144.872Z" stroke="#263238" stroke-miterlimit="10" stroke-linecap="round" stroke-linejoin="round"/>
<path d="M207.928 145.34L199.209 139.849H136.984L129.382 145.34H207.928Z" stroke="#263238" stroke-miterlimit="10" stroke-linecap="round" stroke-linejoin="round"/>
<path d="M209.365 144.872H57.365V148.872H209.365V144.872Z" fill="#263238" stroke="#263238" stroke-miterlimit="10" stroke-linecap="round" stroke-linejoin="round"/>
<path d="M199.209 139.849L106.365 106.872L136.984 139.849" stroke="#263238" stroke-miterlimit="10" stroke-linecap="round" stroke-linejoin="round"/>
<path d="M106.365 106.872L57.365 144.872" stroke="#263238" stroke-miterlimit="10" stroke-linecap="round" stroke-linejoin="round"/>
<path d="M137.365 153.372H99.865V177.372H137.365V153.372Z" fill="#263238" stroke="#263238" stroke-miterlimit="10" stroke-linecap="round" stroke-linejoin="round"/>
<path d="M129.553 158.372H107.678V165.372H129.553V158.372Z" fill="white" stroke="#263238" stroke-miterlimit="10" stroke-linecap="round" stroke-linejoin="round"/>
<path d="M209.365 148.872V191.994" stroke="#263238" stroke-miterlimit="10" stroke-linecap="round" stroke-linejoin="round"/>
<path d="M215.077 206.717H203.964V219.311H215.077V206.717Z" fill="#263238" stroke="#263238" stroke-miterlimit="10" stroke-linecap="round" stroke-linejoin="round"/>
<path d="M203.964 206.717L209.52 191.17L215.077 206.717" stroke="#263238" stroke-miterlimit="10" stroke-linecap="round" stroke-linejoin="round"/>
<path d="M179.397 358.653L203.452 396.586L209.487 392.197L191.831 356.885C190.211 353.645 186.899 351.598 183.277 351.598C179.655 351.598 177.457 355.594 179.397 358.653Z" fill="#2FC765" stroke="#263238" stroke-miterlimit="10" stroke-linecap="round" stroke-linejoin="round"/>
<path d="M207.293 387.259L182.604 404.815C182.604 404.815 184.799 414.142 199.063 413.593C213.328 413.044 212.779 398.231 212.779 398.231L207.293 387.259Z" fill="#263238" stroke="white" stroke-miterlimit="10" stroke-linecap="round" stroke-linejoin="round"/>
<path d="M138.713 375.738L183.434 355.589C186.47 354.221 190.05 355.159 192.025 357.84C194.38 361.036 193.641 365.544 190.389 367.82L141.456 402.073L138.713 375.738Z" fill="#2FC765" stroke="#263238" stroke-miterlimit="10" stroke-linecap="round" stroke-linejoin="round"/>
<path d="M132.129 400.427H86.044V407.559H132.129V400.427Z" fill="white" stroke="#263238" stroke-miterlimit="10" stroke-linecap="round" stroke-linejoin="round"/>
<path d="M109.635 380.127H69.585V396.586H109.635V380.127Z" fill="#263238" stroke="#263238" stroke-miterlimit="10" stroke-linecap="round" stroke-linejoin="round"/>
<path d="M101.406 396.586H141.456V364.491C141.456 362.824 140.105 361.474 138.438 361.474H104.422C102.756 361.474 101.405 362.825 101.405 364.491L101.406 396.586Z" fill="#2FC765" stroke="#263238" stroke-miterlimit="10" stroke-linecap="round" stroke-linejoin="round"/>
<path d="M69.173 419.903H134.735C139.053 419.903 142.553 416.403 142.553 412.085C142.553 407.767 139.053 404.267 134.735 404.267H69.173C64.855 404.267 61.355 407.767 61.355 412.085C61.355 416.403 64.856 419.903 69.173 419.903Z" fill="#263238" stroke="#263238" stroke-miterlimit="10" stroke-linecap="round" stroke-linejoin="round"/>
<path d="M79.049 419.903H144.611C148.929 419.903 152.429 416.403 152.429 412.085C152.429 407.767 148.929 404.267 144.611 404.267H79.049C74.731 404.267 71.231 407.767 71.231 412.085C71.231 416.403 74.731 419.903 79.049 419.903Z" fill="white" stroke="#263238" stroke-miterlimit="10" stroke-linecap="round" stroke-linejoin="round"/>
<path d="M141.456 396.586H69.585V402.072H141.456V396.586Z" fill="white" stroke="#263238" stroke-miterlimit="10" stroke-linecap="round" stroke-linejoin="round"/>
<path d="M84.398 412.085C84.398 414.812 82.187 417.023 79.46 417.023C76.733 417.023 74.522 414.812 74.522 412.085C74.522 409.358 76.733 407.147 79.46 407.147C82.187 407.148 84.398 409.358 84.398 412.085Z" fill="#263238" stroke="#263238" stroke-miterlimit="10" stroke-linecap="round" stroke-linejoin="round"/>
<path d="M92.628 417.023C95.3552 417.023 97.566 414.812 97.566 412.085C97.566 409.358 95.3552 407.147 92.628 407.147C89.9008 407.147 87.69 409.358 87.69 412.085C87.69 414.812 89.9008 417.023 92.628 417.023Z" fill="#263238" stroke="#263238" stroke-miterlimit="10" stroke-linecap="round" stroke-linejoin="round"/>
<path d="M105.795 417.023C108.522 417.023 110.733 414.812 110.733 412.085C110.733 409.358 108.522 407.147 105.795 407.147C103.068 407.147 100.857 409.358 100.857 412.085C100.857 414.812 103.068 417.023 105.795 417.023Z" fill="#263238" stroke="#263238" stroke-miterlimit="10" stroke-linecap="round" stroke-linejoin="round"/>
<path d="M123.9 412.085C123.9 414.812 121.689 417.023 118.962 417.023C116.235 417.023 114.024 414.812 114.024 412.085C114.024 409.358 116.235 407.147 118.962 407.147C121.689 407.148 123.9 409.358 123.9 412.085Z" fill="#263238" stroke="#263238" stroke-miterlimit="10" stroke-linecap="round" stroke-linejoin="round"/>
<path d="M137.067 412.085C137.067 414.812 134.856 417.023 132.129 417.023C129.402 417.023 127.191 414.812 127.191 412.085C127.191 409.358 129.402 407.147 132.129 407.147C134.856 407.148 137.067 409.358 137.067 412.085Z" fill="#263238" stroke="#263238" stroke-miterlimit="10" stroke-linecap="round" stroke-linejoin="round"/>
<path d="M150.234 412.085C150.234 414.812 148.023 417.023 145.296 417.023C142.569 417.023 140.358 414.812 140.358 412.085C140.358 409.358 142.569 407.147 145.296 407.147C148.024 407.148 150.234 409.358 150.234 412.085Z" fill="#263238" stroke="#263238" stroke-miterlimit="10" stroke-linecap="round" stroke-linejoin="round"/>
<path d="M188.639 361.474C188.639 359.959 187.411 358.731 185.896 358.731C184.381 358.731 183.153 359.959 183.153 361.474C183.153 362.989 184.381 364.217 185.896 364.217C187.411 364.217 188.639 362.989 188.639 361.474Z" fill="#263238" stroke="#263238" stroke-miterlimit="10" stroke-linecap="round" stroke-linejoin="round"/>
<path d="M135.421 365.863H106.343V383.419H135.421V365.863Z" fill="white" stroke="#263238" stroke-miterlimit="10" stroke-linecap="round" stroke-linejoin="round"/>
<path d="M135.421 365.863H119.511V383.419H135.421V365.863Z" fill="white" stroke="#263238" stroke-miterlimit="10" stroke-linecap="round" stroke-linejoin="round"/>
</svg>
