<svg width="500" height="500" viewBox="0 0 500 500" fill="none" xmlns="http://www.w3.org/2000/svg">
<path d="M466.005 255.679C458.21 297.043 435.832 344.219 396.269 363.876C336.493 393.583 337.739 445.688 224.037 460.477C206.309 462.785 189.613 463.12 173.986 461.751C165.585 461.016 157.489 459.778 149.716 458.081C79.152 442.763 34.594 389.915 21.112 328.895C3.36697 248.642 53.155 200.328 85.941 171.411C118.728 142.494 147.831 47.3641 259.494 31.9471C276.52 29.6041 293.806 29.0001 310.936 30.6091C350.036 34.2661 391.871 50.0671 419.583 78.9441C421.664 81.1141 423.678 83.3541 425.634 85.6531C463.818 130.653 476.635 199.287 466.005 255.679Z" fill="#EFFFC5"/>
<path opacity="0.7" d="M466.005 255.679C458.21 297.043 435.832 344.219 396.269 363.876C336.493 393.583 337.739 445.688 224.037 460.477C206.309 462.785 189.613 463.12 173.986 461.751C165.585 461.016 157.489 459.778 149.716 458.081C79.152 442.763 34.594 389.915 21.112 328.895C3.36697 248.642 53.155 200.328 85.941 171.411C118.728 142.494 147.831 47.3641 259.494 31.9471C276.52 29.6041 293.806 29.0001 310.936 30.6091C350.036 34.2661 391.871 50.0671 419.583 78.9441C421.664 81.1141 423.678 83.3541 425.634 85.6531C463.818 130.653 476.635 199.287 466.005 255.679Z" fill="white"/>
<path d="M361.988 217.236C362.281 216.325 361.624 214.56 361.384 214.026C360.144 211.269 357.082 210.024 354.182 210.261C353.128 210.347 352.044 210.596 351.033 210.286C349.77 209.899 348.919 208.728 348.301 207.56C347.12 205.329 345.768 203.366 344.009 201.533C341.397 198.81 337.872 196.805 333.992 196.939C323.555 197.299 324.632 205.934 321.755 208.456C320.153 209.86 319 207.863 317.636 207.176C315.833 206.268 313.833 206.425 312.264 207.745C310.771 209.001 309.891 210.819 308.717 212.377C307.543 213.935 305.792 215.341 303.852 215.13C302.229 214.953 300.938 213.697 299.39 213.178C297.615 212.583 295.616 213.02 294.002 213.968C292.593 214.796 291.433 215.978 290.378 217.233H361.988V217.236Z" fill="white" stroke="#263238" stroke-miterlimit="10"/>
<path d="M463.781 106.124C464.23 104.726 463.222 102.016 462.854 101.197C460.951 96.9661 456.251 95.0551 451.801 95.4191C450.183 95.5511 448.519 95.9341 446.967 95.4581C445.028 94.8631 443.722 93.0671 442.774 91.2741C440.962 87.8491 438.886 84.8371 436.187 82.0241C432.177 77.8441 426.769 74.7681 420.812 74.9731C404.794 75.5251 406.447 88.7791 402.03 92.6501C399.571 94.8051 397.801 91.7401 395.707 90.6861C392.939 89.2931 389.87 89.5331 387.461 91.5601C385.17 93.4881 383.819 96.2781 382.016 98.6691C380.214 101.06 377.526 103.219 374.55 102.895C372.059 102.624 370.078 100.696 367.701 99.8991C364.977 98.9861 361.909 99.6571 359.431 101.112C357.268 102.383 355.489 104.197 353.869 106.124H463.781Z" fill="white" stroke="#263238" stroke-miterlimit="10"/>
<path d="M128.218 59.2252C128.511 58.3142 127.854 56.5492 127.614 56.0152C126.374 53.2582 123.312 52.0132 120.412 52.2502C119.358 52.3362 118.274 52.5862 117.263 52.2762C116 51.8892 115.149 50.7182 114.531 49.5502C113.35 47.3192 111.998 45.3562 110.239 43.5232C107.627 40.8002 104.103 38.7952 100.222 38.9292C89.7851 39.2892 90.8621 47.9242 87.9851 50.4462C86.3831 51.8502 85.2301 49.8532 83.8661 49.1662C82.0631 48.2582 80.0631 48.4152 78.4941 49.7352C77.0001 50.9932 76.1201 52.8102 74.9461 54.3682C73.7721 55.9262 72.0211 57.3332 70.0811 57.1212C68.4581 56.9442 67.1671 55.6882 65.6191 55.1692C63.8441 54.5742 61.8451 55.0112 60.2311 55.9592C58.8221 56.7872 57.6621 57.9692 56.6071 59.2242L128.218 59.2252Z" fill="white" stroke="#263238" stroke-miterlimit="10"/>
<path d="M445.151 431.362C445.847 429.906 446.261 428.279 446.261 426.54C446.261 420.548 441.624 415.691 435.905 415.691C433.96 415.691 432.146 416.263 430.591 417.241C430.674 416.736 430.727 416.221 430.727 415.691C430.727 410.698 426.863 406.65 422.097 406.65C417.515 406.65 413.777 410.394 413.494 415.12C413.292 415.114 413.095 415.088 412.891 415.088C409.196 415.088 405.744 416.149 402.767 417.969C400.041 413.461 395.78 410.089 390.747 408.646C393.643 407.103 395.631 403.959 395.631 400.322C395.631 395.162 391.638 390.98 386.713 390.98C381.788 390.98 377.795 395.163 377.795 400.322C377.795 403.617 379.428 406.508 381.887 408.171C379.693 408.55 377.614 409.278 375.709 410.319C373.47 403.624 367.402 398.815 360.246 398.815C356.142 398.815 352.4 400.405 349.524 403.016C348.133 390.227 337.773 380.29 325.193 380.29C317.964 380.29 311.469 383.572 306.985 388.789C302.829 376.711 291.796 368.075 278.835 368.075C272.916 368.075 267.404 369.883 262.759 372.99C260.69 372.164 258.454 371.691 256.108 371.691C252.647 371.691 249.416 372.694 246.636 374.411C243.855 372.694 240.625 371.691 237.164 371.691C234.818 371.691 232.582 372.163 230.514 372.99C225.87 369.883 220.357 368.075 214.438 368.075C201.477 368.075 190.444 376.711 186.288 388.789C181.804 383.572 175.309 380.29 168.08 380.29C155.5 380.29 145.141 390.227 143.749 403.016C140.873 400.406 137.131 398.815 133.027 398.815C125.872 398.815 119.804 403.624 117.565 410.319C115.661 409.278 113.582 408.549 111.387 408.171C113.847 406.508 115.479 403.617 115.479 400.322C115.479 395.162 111.486 390.98 106.561 390.98C101.636 390.98 97.6429 395.163 97.6429 400.322C97.6429 403.959 99.6309 407.103 102.527 408.646C97.4929 410.089 93.2329 413.461 90.5069 417.969C87.5299 416.149 84.0779 415.088 80.3829 415.088C80.1799 415.088 79.9819 415.114 79.7799 415.12C79.4969 410.394 75.7599 406.65 71.1769 406.65C66.4109 406.65 62.5469 410.698 62.5469 415.691C62.5469 416.221 62.5989 416.736 62.6829 417.241C61.1279 416.264 59.3149 415.691 57.3689 415.691C51.6499 415.691 47.0129 420.548 47.0129 426.54C47.0129 428.279 47.4279 429.906 48.1229 431.362H445.151Z" fill="white" stroke="#263238" stroke-miterlimit="10"/>
<path d="M342.528 79.854H322.537V429.917H342.528V79.854Z" stroke="#263238" stroke-miterlimit="10"/>
<path d="M322.526 184.093H307.173" stroke="#263238" stroke-miterlimit="10"/>
<path d="M322.526 276.94H302.571" stroke="#263238" stroke-miterlimit="10"/>
<path d="M342.528 79.854L323.278 104.287H342.315L322.537 79.854" stroke="#263238" stroke-miterlimit="10"/>
<path d="M342.528 104.898L323.278 129.331H342.315L322.537 104.898" stroke="#263238" stroke-miterlimit="10"/>
<path d="M342.528 129.941L323.278 154.375H342.315L322.537 129.941" stroke="#263238" stroke-miterlimit="10"/>
<path d="M342.528 154.985L323.278 179.418H342.315L322.537 154.985" stroke="#263238" stroke-miterlimit="10"/>
<path d="M342.528 180.028L323.278 204.462H342.315L322.537 180.028H307.206" stroke="#263238" stroke-miterlimit="10"/>
<path d="M342.528 205.072L323.278 229.505H342.315L322.537 205.072" stroke="#263238" stroke-miterlimit="10"/>
<path d="M342.528 230.115L323.278 254.549H342.315L322.537 230.115" stroke="#263238" stroke-miterlimit="10"/>
<path d="M342.528 255.159L323.278 279.592H342.315L322.537 255.159" stroke="#263238" stroke-miterlimit="10"/>
<path d="M342.528 280.202L323.278 304.636H342.315L322.537 280.202H302.604" stroke="#263238" stroke-miterlimit="10"/>
<path d="M342.528 305.246L323.278 329.679H342.315L322.537 305.246" stroke="#263238" stroke-miterlimit="10"/>
<path d="M342.528 330.289L323.278 354.723H342.315L322.537 330.289" stroke="#263238" stroke-miterlimit="10"/>
<path d="M342.528 355.333L323.278 379.766H342.315L322.537 355.333" stroke="#263238" stroke-miterlimit="10"/>
<path d="M342.528 380.376L323.278 404.81H342.315L322.537 380.376" stroke="#263238" stroke-miterlimit="10"/>
<path d="M342.528 405.42L323.278 429.853H342.315L322.537 405.42" stroke="#263238" stroke-miterlimit="10"/>
<path d="M342.127 430.556H150.363L177.758 400.94H314.732L342.127 430.556Z" fill="white" stroke="#263238" stroke-miterlimit="10"/>
<path d="M187.432 423.926C191.595 423.926 194.969 420.552 194.969 416.389C194.969 412.226 191.595 408.852 187.432 408.852C183.269 408.852 179.895 412.226 179.895 416.389C179.895 420.552 183.269 423.926 187.432 423.926Z" fill="#263238" stroke="#263238" stroke-miterlimit="10" stroke-linecap="round" stroke-linejoin="round"/>
<path d="M217.581 423.926C221.744 423.926 225.118 420.552 225.118 416.389C225.118 412.226 221.744 408.852 217.581 408.852C213.418 408.852 210.044 412.226 210.044 416.389C210.044 420.552 213.418 423.926 217.581 423.926Z" fill="#263238" stroke="#263238" stroke-miterlimit="10" stroke-linecap="round" stroke-linejoin="round"/>
<path d="M247.73 423.926C251.893 423.926 255.267 420.552 255.267 416.389C255.267 412.226 251.893 408.852 247.73 408.852C243.567 408.852 240.193 412.226 240.193 416.389C240.193 420.552 243.567 423.926 247.73 423.926Z" fill="#263238" stroke="#263238" stroke-miterlimit="10" stroke-linecap="round" stroke-linejoin="round"/>
<path d="M277.879 423.926C282.042 423.926 285.416 420.552 285.416 416.389C285.416 412.226 282.042 408.852 277.879 408.852C273.716 408.852 270.342 412.226 270.342 416.389C270.342 420.552 273.716 423.926 277.879 423.926Z" fill="#263238" stroke="#263238" stroke-miterlimit="10" stroke-linecap="round" stroke-linejoin="round"/>
<path d="M308.027 423.926C312.19 423.926 315.564 420.552 315.564 416.389C315.564 412.226 312.19 408.852 308.027 408.852C303.864 408.852 300.49 412.226 300.49 416.389C300.49 420.552 303.864 423.926 308.027 423.926Z" fill="#263238" stroke="#263238" stroke-miterlimit="10" stroke-linecap="round" stroke-linejoin="round"/>
<path d="M467.556 429.937H24.9351V442.846H467.556V429.937Z" fill="#263238" stroke="#263238" stroke-miterlimit="10" stroke-linecap="round" stroke-linejoin="round"/>
<path d="M307.56 167.552L297.56 386.792H194.83L184.83 167.552C184.83 137.652 197.34 110.302 210.93 89.0222C223.34 69.5922 236.65 55.2222 242.17 48.5422C244.03 46.2922 247.48 46.2822 249.36 48.5122C254.98 55.1822 268.51 69.5722 281.09 89.0222C294.88 110.302 307.56 137.642 307.56 167.552Z" fill="white" stroke="#263238" stroke-miterlimit="10"/>
<path d="M300.088 190.122L291.753 378.86" stroke="#263238" stroke-miterlimit="10"/>
<path d="M281.564 103.406C291.737 121.46 300.224 143.183 300.935 166.675Z" fill="white"/>
<path d="M281.564 103.406C291.737 121.46 300.224 143.183 300.935 166.675" stroke="#263238" stroke-miterlimit="10"/>
<path d="M281.09 89.0222H210.93C223.34 69.5922 236.65 55.2222 242.17 48.5422C244.03 46.2922 247.48 46.2822 249.36 48.5122C254.98 55.1822 268.51 69.5722 281.09 89.0222Z" fill="#C7FF02" stroke="#263238" stroke-miterlimit="10" stroke-linecap="round" stroke-linejoin="round"/>
<path d="M189.678 275.111C189.678 275.111 163.615 284.094 153.822 308.577C146.135 327.794 144.105 364.734 143.587 379.735C143.463 383.331 146.347 386.308 149.946 386.308C152.278 386.308 154.429 385.036 155.536 382.983C160.637 373.524 176.529 347.103 193.12 351.125L189.678 275.111Z" fill="#C7FF02" stroke="#263238" stroke-miterlimit="10" stroke-linecap="round" stroke-linejoin="round"/>
<path d="M302.736 274.894C302.736 274.894 328.875 284.094 338.668 308.577C346.355 327.794 348.385 364.734 348.903 379.735C349.027 383.331 346.143 386.308 342.544 386.308C340.212 386.308 338.061 385.036 336.954 382.983C331.853 373.524 315.762 347.245 299.171 351.267L302.736 274.894Z" fill="#C7FF02" stroke="#263238" stroke-miterlimit="10" stroke-linecap="round" stroke-linejoin="round"/>
<path d="M310.03 278.271C305.715 275.945 302.736 274.894 302.736 274.894L299.171 351.268C300.928 350.842 302.678 350.773 304.41 350.971L310.03 278.271Z" fill="#263238" stroke="#263238" stroke-miterlimit="10" stroke-linecap="round" stroke-linejoin="round"/>
<path d="M289.141 386.635H204.511V401.64H289.141V386.635Z" fill="#263238" stroke="#263238" stroke-miterlimit="10" stroke-linecap="round" stroke-linejoin="round"/>
<path d="M250.676 350.391C262.923 347.44 270.459 335.121 267.508 322.875C264.558 310.629 252.239 303.093 239.993 306.043C227.747 308.993 220.211 321.312 223.161 333.558C226.111 345.805 238.43 353.341 250.676 350.391Z" fill="white" stroke="#263238" stroke-miterlimit="10"/>
<path d="M249.43 345.717C259.087 343.456 265.082 333.795 262.82 324.138C260.559 314.482 250.898 308.486 241.242 310.748C231.585 313.009 225.59 322.67 227.851 332.327C230.112 341.983 239.773 347.978 249.43 345.717Z" fill="#C7FF02" stroke="#263238" stroke-miterlimit="10"/>
<path d="M248.696 342.599C256.634 340.737 261.56 332.793 259.699 324.855C257.838 316.917 249.894 311.991 241.955 313.852C234.017 315.714 229.091 323.658 230.953 331.596C232.814 339.534 240.758 344.46 248.696 342.599Z" fill="white" stroke="#263238" stroke-miterlimit="10"/>
<path d="M247.786 338.689C253.567 337.331 257.153 331.543 255.795 325.762C254.437 319.98 248.649 316.395 242.868 317.753C237.086 319.111 233.501 324.899 234.859 330.68C236.217 336.461 242.005 340.047 247.786 338.689Z" fill="#C7FF02" stroke="#263238" stroke-miterlimit="10"/>
<path d="M245.326 335.008C249.075 335.008 252.114 331.969 252.114 328.22C252.114 324.471 249.075 321.432 245.326 321.432C241.577 321.432 238.538 324.471 238.538 328.22C238.538 331.969 241.577 335.008 245.326 335.008Z" fill="white" stroke="#263238" stroke-miterlimit="10"/>
<path d="M248.469 328.22C248.469 326.484 247.062 325.077 245.326 325.077C243.59 325.077 242.183 326.484 242.183 328.22C242.183 329.956 243.59 331.363 245.326 331.363C247.062 331.363 248.469 329.956 248.469 328.22Z" fill="#C7FF02" stroke="#263238" stroke-miterlimit="10"/>
<path d="M246.623 323.293L245.326 328.22L249.978 329.239L246.623 323.293Z" fill="white" stroke="#263238" stroke-miterlimit="10"/>
<path d="M248.605 326.037L269.036 314.907" stroke="#263238" stroke-miterlimit="10"/>
<path d="M262.48 318.566L262.785 313.23L272.39 307.741V313.84L262.48 318.566Z" fill="white" stroke="#263238" stroke-miterlimit="10"/>
<path d="M276.507 316.737L272.301 313.635L262.442 318.82L267.19 321.568L276.507 316.737Z" fill="white" stroke="#263238" stroke-miterlimit="10"/>
<path d="M245.326 284.884C257.923 284.884 268.134 274.673 268.134 262.076C268.134 249.48 257.923 239.268 245.326 239.268C232.73 239.268 222.518 249.48 222.518 262.076C222.518 274.673 232.73 284.884 245.326 284.884Z" stroke="#263238" stroke-miterlimit="10"/>
<path d="M238.53 258.88H231.675V272.748H238.53V258.88Z" fill="#C7FF02" stroke="#263238" stroke-miterlimit="10"/>
<path d="M248.813 254.467H241.958V272.748H248.813V254.467Z" fill="#C7FF02" stroke="#263238" stroke-miterlimit="10"/>
<path d="M259.096 250.37H252.241V272.748H259.096V250.37Z" fill="#C7FF02" stroke="#263238" stroke-miterlimit="10"/>
<path d="M245.326 220.376C257.923 220.376 268.134 210.164 268.134 197.568C268.134 184.971 257.923 174.76 245.326 174.76C232.73 174.76 222.518 184.971 222.518 197.568C222.518 210.164 232.73 220.376 245.326 220.376Z" stroke="#263238" stroke-miterlimit="10"/>
<path d="M261.863 200.666V194.749H257.932C257.621 193.369 257.085 192.079 256.368 190.908L259.211 188.065L255.027 183.881L252.198 186.71C251.048 185.996 249.78 185.459 248.425 185.138V181.031H242.508V185.138C241.181 185.453 239.938 185.974 238.807 186.666L235.824 183.683L231.64 187.867L234.609 190.836C233.919 191.946 233.398 193.167 233.073 194.469H228.79V200.386H233C233.295 201.697 233.794 202.928 234.458 204.053L231.441 207.07L235.625 211.254L238.56 208.319C239.676 209.037 240.91 209.581 242.227 209.925V214.104H248.144V210.069C249.508 209.778 250.786 209.263 251.951 208.575L254.828 211.452L259.012 207.268L256.218 204.474C256.961 203.319 257.519 202.036 257.86 200.666H261.863ZM245.466 204.311C241.742 204.311 238.723 201.292 238.723 197.568C238.723 193.844 241.742 190.825 245.466 190.825C249.19 190.825 252.209 193.844 252.209 197.568C252.209 201.292 249.19 204.311 245.466 204.311Z" fill="#C7FF02" stroke="#263238" stroke-miterlimit="10"/>
<path d="M245.326 155.867C257.923 155.867 268.134 145.655 268.134 133.059C268.134 120.462 257.923 110.251 245.326 110.251C232.73 110.251 222.518 120.462 222.518 133.059C222.518 145.655 232.73 155.867 245.326 155.867Z" stroke="#263238" stroke-miterlimit="10"/>
<path d="M257.118 127.859C257.118 121.089 251.5 115.631 244.672 115.892C238.523 116.127 233.43 121.205 233.177 127.354C233.056 130.305 234.005 133.027 235.666 135.172C237.513 137.557 238.647 140.414 238.647 143.43V144.069H251.638V143.425C251.638 140.45 252.703 137.597 254.548 135.263C256.156 133.227 257.118 130.657 257.118 127.859Z" fill="#C7FF02" stroke="#263238" stroke-miterlimit="10"/>
<path d="M247.815 152.515H242.603C241.554 152.515 240.703 151.664 240.703 150.615V148.073C240.703 147.024 241.554 146.173 242.603 146.173H247.815C248.864 146.173 249.715 147.024 249.715 148.073V150.615C249.715 151.664 248.864 152.515 247.815 152.515Z" fill="white" stroke="#263238" stroke-miterlimit="10" stroke-linecap="round" stroke-linejoin="round"/>
<path d="M251.723 144.07H238.647V147.044H251.723V144.07Z" fill="white" stroke="#263238" stroke-miterlimit="10" stroke-linecap="round" stroke-linejoin="round"/>
<path d="M250.415 150.246H239.954L238.647 147.272H251.723L250.415 150.246Z" fill="white" stroke="#263238" stroke-miterlimit="10" stroke-linecap="round" stroke-linejoin="round"/>
<path d="M68.4919 286.355C67.8919 286.355 67.3919 286.246 66.9919 286.025C66.5919 285.805 66.2899 285.473 66.0859 285.03C65.8819 284.586 65.7639 284.019 65.7319 283.332L67.4359 283.044C67.4519 283.444 67.4939 283.778 67.5619 284.046C67.6299 284.315 67.7339 284.514 67.8739 284.646C68.0139 284.779 68.1879 284.844 68.3959 284.844C68.6519 284.844 68.8259 284.764 68.9179 284.604C69.0099 284.445 69.0559 284.26 69.0559 284.052C69.0559 283.644 68.9579 283.302 68.7619 283.026C68.5659 282.751 68.3079 282.472 67.9879 282.192L66.9799 281.316C66.6199 281.012 66.3259 280.668 66.0979 280.284C65.8699 279.9 65.7559 279.428 65.7559 278.868C65.7559 278.068 65.9899 277.454 66.4579 277.026C66.9259 276.598 67.5679 276.384 68.3839 276.384C68.8719 276.384 69.2719 276.464 69.5839 276.624C69.8959 276.784 70.1379 276.998 70.3089 277.266C70.4809 277.534 70.6009 277.826 70.6689 278.142C70.7369 278.458 70.7789 278.772 70.7949 279.084L69.1029 279.336C69.0869 279.04 69.0609 278.78 69.0249 278.556C68.9889 278.332 68.9169 278.156 68.8089 278.028C68.7009 277.9 68.5389 277.836 68.3229 277.836C68.0909 277.836 67.9189 277.922 67.8069 278.094C67.6949 278.266 67.6389 278.456 67.6389 278.664C67.6389 279.008 67.7169 279.29 67.8729 279.51C68.0289 279.73 68.2429 279.96 68.5149 280.2L69.4989 281.064C69.9069 281.416 70.2569 281.818 70.5489 282.27C70.8409 282.722 70.9869 283.281 70.9869 283.945C70.9869 284.4 70.8829 284.812 70.6749 285.18C70.4669 285.548 70.1769 285.836 69.8049 286.044C69.4339 286.252 68.9959 286.355 68.4919 286.355Z" fill="#263238"/>
<path d="M72.944 286.223V277.979H71.444V276.503H76.412V277.979H74.936V286.223H72.944Z" fill="#263238"/>
<path d="M76.46 286.223L78.344 276.503H80.54L82.412 286.223H80.576L80.228 284.087H78.692L78.32 286.223H76.46ZM78.872 282.876H80.036L79.448 278.952L78.872 282.876Z" fill="#263238"/>
<path d="M85.7479 286.368C85.0919 286.368 84.5719 286.229 84.1879 285.954C83.8039 285.678 83.5299 285.286 83.3659 284.778C83.2019 284.269 83.1199 283.679 83.1199 283.007V279.755C83.1199 279.059 83.2039 278.459 83.3719 277.955C83.5399 277.451 83.8339 277.063 84.2539 276.791C84.6739 276.519 85.2439 276.383 85.9639 276.383C86.6599 276.383 87.2099 276.499 87.6139 276.731C88.0179 276.963 88.3079 277.291 88.4839 277.715C88.6599 278.139 88.7479 278.643 88.7479 279.227V279.791H86.8159V279.107C86.8159 278.851 86.7999 278.626 86.7679 278.429C86.7359 278.233 86.6619 278.079 86.5459 277.967C86.4299 277.855 86.2439 277.799 85.9879 277.799C85.7239 277.799 85.5319 277.867 85.4119 278.003C85.2919 278.139 85.2159 278.314 85.1839 278.525C85.1519 278.737 85.1359 278.964 85.1359 279.203V283.511C85.1359 283.784 85.1599 284.028 85.2079 284.243C85.2559 284.459 85.3459 284.627 85.4779 284.747C85.6099 284.867 85.7999 284.927 86.0479 284.927C86.2959 284.927 86.4879 284.864 86.6239 284.736C86.7599 284.608 86.8539 284.433 86.9059 284.214C86.9579 283.994 86.9839 283.744 86.9839 283.464V282.432H86.0359V281.232H88.7719V286.224H87.4759L87.3559 285.348C87.2279 285.644 87.0359 285.888 86.7799 286.08C86.5239 286.271 86.1799 286.368 85.7479 286.368Z" fill="#263238"/>
<path d="M90.1279 286.223V276.503H94.3639V277.871H92.1079V280.451H93.8479V281.831H92.1079V284.879H94.3879V286.223H90.1279Z" fill="#263238"/>
<path d="M100.94 286.223V283.955H97.9879V282.503L100.52 276.502H102.68V282.539H103.616V283.955H102.68V286.223H100.94ZM99.4519 282.54H100.94V278.412L99.4519 282.54Z" fill="#263238"/>
<path d="M65.36 295.171H114.12" stroke="#263238" stroke-miterlimit="10"/>
<path d="M65.36 301.955H114.12" stroke="#263238" stroke-miterlimit="10"/>
<path d="M65.36 308.739H114.12" stroke="#263238" stroke-miterlimit="10"/>
<path d="M65.36 315.523H114.12" stroke="#263238" stroke-miterlimit="10"/>
<path d="M222.518 327.755H164.325V281.096H113.076" stroke="#263238" stroke-miterlimit="10"/>
<path d="M68.4919 224.253C67.8919 224.253 67.3919 224.143 66.9919 223.923C66.5919 223.703 66.2899 223.371 66.0859 222.927C65.8819 222.483 65.7639 221.917 65.7319 221.229L67.4359 220.941C67.4519 221.341 67.4939 221.675 67.5619 221.943C67.6299 222.211 67.7339 222.411 67.8739 222.543C68.0139 222.675 68.1879 222.741 68.3959 222.741C68.6519 222.741 68.8259 222.661 68.9179 222.501C69.0099 222.341 69.0559 222.157 69.0559 221.949C69.0559 221.541 68.9579 221.199 68.7619 220.923C68.5659 220.647 68.3079 220.369 67.9879 220.089L66.9799 219.213C66.6199 218.909 66.3259 218.565 66.0979 218.181C65.8699 217.797 65.7559 217.325 65.7559 216.765C65.7559 215.965 65.9899 215.351 66.4579 214.923C66.9259 214.495 67.5679 214.281 68.3839 214.281C68.8719 214.281 69.2719 214.361 69.5839 214.521C69.8959 214.681 70.1379 214.895 70.3089 215.163C70.4809 215.431 70.6009 215.723 70.6689 216.039C70.7369 216.355 70.7789 216.669 70.7949 216.981L69.1029 217.233C69.0869 216.937 69.0609 216.677 69.0249 216.453C68.9889 216.229 68.9169 216.053 68.8089 215.925C68.7009 215.797 68.5389 215.733 68.3229 215.733C68.0909 215.733 67.9189 215.819 67.8069 215.991C67.6949 216.163 67.6389 216.353 67.6389 216.561C67.6389 216.905 67.7169 217.187 67.8729 217.407C68.0289 217.627 68.2429 217.857 68.5149 218.097L69.4989 218.961C69.9069 219.313 70.2569 219.715 70.5489 220.167C70.8409 220.619 70.9869 221.177 70.9869 221.841C70.9869 222.297 70.8829 222.709 70.6749 223.077C70.4669 223.445 70.1769 223.733 69.8049 223.941C69.4339 224.148 68.9959 224.253 68.4919 224.253Z" fill="#263238"/>
<path d="M72.944 224.121V215.877H71.444V214.4H76.412V215.876H74.936V224.12H72.944V224.121Z" fill="#263238"/>
<path d="M76.46 224.121L78.344 214.401H80.54L82.412 224.121H80.576L80.228 221.985H78.692L78.32 224.121H76.46ZM78.872 220.773H80.036L79.448 216.849L78.872 220.773Z" fill="#263238"/>
<path d="M85.7479 224.265C85.0919 224.265 84.5719 224.127 84.1879 223.851C83.8039 223.575 83.5299 223.183 83.3659 222.675C83.2019 222.167 83.1199 221.577 83.1199 220.905V217.653C83.1199 216.957 83.2039 216.357 83.3719 215.853C83.5399 215.349 83.8339 214.961 84.2539 214.689C84.6739 214.417 85.2439 214.281 85.9639 214.281C86.6599 214.281 87.2099 214.397 87.6139 214.629C88.0179 214.861 88.3079 215.189 88.4839 215.613C88.6599 216.037 88.7479 216.541 88.7479 217.125V217.689H86.8159V217.005C86.8159 216.749 86.7999 216.523 86.7679 216.327C86.7359 216.131 86.6619 215.977 86.5459 215.865C86.4299 215.753 86.2439 215.697 85.9879 215.697C85.7239 215.697 85.5319 215.765 85.4119 215.901C85.2919 216.037 85.2159 216.212 85.1839 216.423C85.1519 216.635 85.1359 216.861 85.1359 217.101V221.409C85.1359 221.681 85.1599 221.925 85.2079 222.141C85.2559 222.357 85.3459 222.525 85.4779 222.645C85.6099 222.765 85.7999 222.825 86.0479 222.825C86.2959 222.825 86.4879 222.761 86.6239 222.633C86.7599 222.505 86.8539 222.331 86.9059 222.111C86.9579 221.891 86.9839 221.641 86.9839 221.361V220.329H86.0359V219.129H88.7719V224.121H87.4759L87.3559 223.245C87.2279 223.541 87.0359 223.785 86.7799 223.977C86.5239 224.169 86.1799 224.265 85.7479 224.265Z" fill="#263238"/>
<path d="M90.1279 224.121V214.401H94.3639V215.769H92.1079V218.349H93.8479V219.729H92.1079V222.777H94.3879V224.121H90.1279Z" fill="#263238"/>
<path d="M100.724 224.289C100.076 224.289 99.5619 224.167 99.1819 223.923C98.8019 223.679 98.5279 223.335 98.3599 222.891C98.1919 222.447 98.1079 221.937 98.1079 221.361V221.013H99.9559C99.9559 221.029 99.9559 221.071 99.9559 221.139C99.9559 221.207 99.9559 221.273 99.9559 221.337C99.9639 221.649 99.9899 221.907 100.034 222.111C100.078 222.315 100.156 222.469 100.268 222.573C100.38 222.677 100.539 222.729 100.748 222.729C100.964 222.729 101.124 222.675 101.228 222.567C101.332 222.459 101.404 222.301 101.444 222.093C101.484 221.885 101.504 221.629 101.504 221.325C101.504 220.837 101.432 220.459 101.288 220.191C101.144 219.923 100.856 219.785 100.424 219.777C100.416 219.777 100.376 219.777 100.304 219.777C100.232 219.777 100.164 219.777 100.1 219.777V218.409C100.148 218.409 100.198 218.409 100.25 218.409C100.302 218.409 100.348 218.409 100.388 218.409C100.82 218.409 101.114 218.293 101.27 218.061C101.426 217.829 101.504 217.465 101.504 216.969C101.504 216.585 101.448 216.285 101.336 216.069C101.224 215.853 101.016 215.745 100.712 215.745C100.408 215.745 100.208 215.865 100.112 216.105C100.016 216.345 99.9639 216.653 99.9559 217.029C99.9559 217.093 99.9559 217.163 99.9559 217.239C99.9559 217.315 99.9559 217.389 99.9559 217.461H98.1079V216.933C98.1079 216.365 98.2119 215.883 98.4199 215.487C98.6279 215.091 98.9239 214.789 99.3079 214.581C99.6919 214.373 100.16 214.269 100.712 214.269C101.264 214.269 101.736 214.369 102.128 214.569C102.52 214.769 102.818 215.061 103.022 215.445C103.226 215.829 103.328 216.305 103.328 216.873C103.328 217.441 103.21 217.913 102.974 218.289C102.738 218.665 102.448 218.905 102.104 219.009C102.344 219.089 102.556 219.221 102.74 219.405C102.924 219.589 103.068 219.835 103.172 220.143C103.276 220.451 103.328 220.833 103.328 221.289C103.328 221.873 103.244 222.391 103.076 222.843C102.908 223.295 102.632 223.649 102.248 223.905C101.864 224.161 101.356 224.289 100.724 224.289Z" fill="#263238"/>
<path d="M65.36 233.068H114.12" stroke="#263238" stroke-miterlimit="10"/>
<path d="M65.36 239.852H114.12" stroke="#263238" stroke-miterlimit="10"/>
<path d="M65.36 246.636H114.12" stroke="#263238" stroke-miterlimit="10"/>
<path d="M65.36 253.42H114.12" stroke="#263238" stroke-miterlimit="10"/>
<path d="M222.518 263.574H164.325V216.915H113.076" stroke="#263238" stroke-miterlimit="10"/>
<path d="M68.4919 162.15C67.8919 162.15 67.3919 162.04 66.9919 161.82C66.5919 161.6 66.2899 161.268 66.0859 160.824C65.8819 160.38 65.7639 159.814 65.7319 159.126L67.4359 158.838C67.4519 159.238 67.4939 159.572 67.5619 159.84C67.6299 160.109 67.7339 160.308 67.8739 160.44C68.0139 160.572 68.1879 160.638 68.3959 160.638C68.6519 160.638 68.8259 160.558 68.9179 160.398C69.0099 160.238 69.0559 160.054 69.0559 159.846C69.0559 159.438 68.9579 159.096 68.7619 158.82C68.5659 158.544 68.3079 158.266 67.9879 157.986L66.9799 157.11C66.6199 156.806 66.3259 156.462 66.0979 156.078C65.8699 155.694 65.7559 155.222 65.7559 154.662C65.7559 153.862 65.9899 153.248 66.4579 152.82C66.9259 152.392 67.5679 152.178 68.3839 152.178C68.8719 152.178 69.2719 152.258 69.5839 152.418C69.8959 152.578 70.1379 152.792 70.3089 153.06C70.4809 153.328 70.6009 153.62 70.6689 153.936C70.7369 154.252 70.7789 154.566 70.7949 154.878L69.1029 155.13C69.0869 154.834 69.0609 154.574 69.0249 154.35C68.9889 154.126 68.9169 153.95 68.8089 153.822C68.7009 153.694 68.5389 153.63 68.3229 153.63C68.0909 153.63 67.9189 153.716 67.8069 153.888C67.6949 154.06 67.6389 154.25 67.6389 154.458C67.6389 154.802 67.7169 155.084 67.8729 155.304C68.0289 155.524 68.2429 155.754 68.5149 155.994L69.4989 156.858C69.9069 157.21 70.2569 157.612 70.5489 158.064C70.8409 158.516 70.9869 159.074 70.9869 159.738C70.9869 160.194 70.8829 160.606 70.6749 160.974C70.4669 161.342 70.1769 161.63 69.8049 161.838C69.4339 162.046 68.9959 162.15 68.4919 162.15Z" fill="#263238"/>
<path d="M72.944 162.018V153.774H71.444V152.298H76.412V153.774H74.936V162.018H72.944Z" fill="#263238"/>
<path d="M76.46 162.018L78.344 152.298H80.54L82.412 162.018H80.576L80.228 159.882H78.692L78.32 162.018H76.46ZM78.872 158.669H80.036L79.448 154.745L78.872 158.669Z" fill="#263238"/>
<path d="M85.7479 162.162C85.0919 162.162 84.5719 162.024 84.1879 161.748C83.8039 161.472 83.5299 161.08 83.3659 160.572C83.2019 160.064 83.1199 159.474 83.1199 158.802V155.55C83.1199 154.854 83.2039 154.254 83.3719 153.75C83.5399 153.246 83.8339 152.858 84.2539 152.586C84.6739 152.314 85.2439 152.178 85.9639 152.178C86.6599 152.178 87.2099 152.294 87.6139 152.526C88.0179 152.758 88.3079 153.086 88.4839 153.51C88.6599 153.934 88.7479 154.438 88.7479 155.022V155.586H86.8159V154.902C86.8159 154.646 86.7999 154.42 86.7679 154.224C86.7359 154.028 86.6619 153.874 86.5459 153.762C86.4299 153.65 86.2439 153.594 85.9879 153.594C85.7239 153.594 85.5319 153.662 85.4119 153.798C85.2919 153.934 85.2159 154.109 85.1839 154.32C85.1519 154.532 85.1359 154.759 85.1359 154.998V159.306C85.1359 159.578 85.1599 159.822 85.2079 160.038C85.2559 160.254 85.3459 160.422 85.4779 160.542C85.6099 160.662 85.7999 160.722 86.0479 160.722C86.2959 160.722 86.4879 160.658 86.6239 160.53C86.7599 160.402 86.8539 160.228 86.9059 160.008C86.9579 159.788 86.9839 159.538 86.9839 159.258V158.226H86.0359V157.026H88.7719V162.018H87.4759L87.3559 161.142C87.2279 161.438 87.0359 161.682 86.7799 161.874C86.5239 162.066 86.1799 162.162 85.7479 162.162Z" fill="#263238"/>
<path d="M90.1279 162.018V152.298H94.3639V153.666H92.1079V156.246H93.8479V157.626H92.1079V160.674H94.3879V162.018H90.1279Z" fill="#263238"/>
<path d="M98.1439 162.018V160.71L100.508 157.074C100.684 156.802 100.85 156.542 101.006 156.294C101.162 156.046 101.29 155.792 101.39 155.532C101.49 155.272 101.54 154.994 101.54 154.698C101.54 154.386 101.48 154.148 101.36 153.984C101.24 153.82 101.068 153.738 100.844 153.738C100.604 153.738 100.42 153.804 100.292 153.936C100.164 154.068 100.076 154.242 100.028 154.458C99.9799 154.674 99.9559 154.91 99.9559 155.166V155.622H98.1439V155.142C98.1439 154.566 98.2339 154.054 98.4139 153.606C98.5939 153.158 98.8779 152.808 99.2659 152.556C99.6539 152.304 100.164 152.178 100.796 152.178C101.652 152.178 102.296 152.402 102.728 152.85C103.16 153.298 103.376 153.926 103.376 154.734C103.376 155.126 103.316 155.488 103.196 155.82C103.076 156.153 102.918 156.472 102.722 156.781C102.526 157.089 102.316 157.407 102.092 157.735L100.22 160.555H103.112V162.019L98.1439 162.018Z" fill="#263238"/>
<path d="M65.36 170.965H114.12" stroke="#263238" stroke-miterlimit="10"/>
<path d="M65.36 177.749H114.12" stroke="#263238" stroke-miterlimit="10"/>
<path d="M65.36 184.533H114.12" stroke="#263238" stroke-miterlimit="10"/>
<path d="M65.36 191.318H114.12" stroke="#263238" stroke-miterlimit="10"/>
<path d="M222.518 199.393H164.325V152.734H113.076" stroke="#263238" stroke-miterlimit="10"/>
<path d="M68.4919 88.992C67.8919 88.992 67.3919 88.882 66.9919 88.662C66.5919 88.442 66.2899 88.11 66.0859 87.666C65.8819 87.222 65.7639 86.656 65.7319 85.968L67.4359 85.68C67.4519 86.08 67.4939 86.414 67.5619 86.682C67.6299 86.951 67.7339 87.15 67.8739 87.282C68.0139 87.414 68.1879 87.48 68.3959 87.48C68.6519 87.48 68.8259 87.4 68.9179 87.24C69.0099 87.08 69.0559 86.896 69.0559 86.688C69.0559 86.28 68.9579 85.938 68.7619 85.662C68.5659 85.386 68.3079 85.108 67.9879 84.828L66.9799 83.952C66.6199 83.648 66.3259 83.304 66.0979 82.92C65.8699 82.536 65.7559 82.064 65.7559 81.504C65.7559 80.704 65.9899 80.09 66.4579 79.662C66.9259 79.234 67.5679 79.02 68.3839 79.02C68.8719 79.02 69.2719 79.1 69.5839 79.26C69.8959 79.42 70.1379 79.634 70.3089 79.902C70.4809 80.17 70.6009 80.462 70.6689 80.778C70.7369 81.094 70.7789 81.408 70.7949 81.72L69.1029 81.972C69.0869 81.676 69.0609 81.416 69.0249 81.192C68.9889 80.968 68.9169 80.792 68.8089 80.664C68.7009 80.536 68.5389 80.472 68.3229 80.472C68.0909 80.472 67.9189 80.558 67.8069 80.73C67.6949 80.902 67.6389 81.092 67.6389 81.3C67.6389 81.644 67.7169 81.926 67.8729 82.146C68.0289 82.366 68.2429 82.596 68.5149 82.836L69.4999 83.7C69.9079 84.052 70.2579 84.454 70.5499 84.906C70.8419 85.358 70.9879 85.916 70.9879 86.58C70.9879 87.035 70.8839 87.448 70.6759 87.816C70.4679 88.184 70.1779 88.472 69.8059 88.68C69.4339 88.888 68.9959 88.992 68.4919 88.992Z" fill="#263238"/>
<path d="M72.944 88.8601V80.6161H71.444V79.1401H76.412V80.6161H74.936V88.8601H72.944Z" fill="#263238"/>
<path d="M76.46 88.8601L78.344 79.1401H80.54L82.412 88.8601H80.576L80.228 86.7241H78.692L78.32 88.8601H76.46ZM78.872 85.5121H80.036L79.448 81.5881L78.872 85.5121Z" fill="#263238"/>
<path d="M85.7479 89.004C85.0919 89.004 84.5719 88.866 84.1879 88.59C83.8039 88.314 83.5299 87.922 83.3659 87.414C83.2019 86.906 83.1199 86.316 83.1199 85.644V82.392C83.1199 81.696 83.2039 81.096 83.3719 80.592C83.5399 80.088 83.8339 79.7 84.2539 79.428C84.6739 79.156 85.2439 79.02 85.9639 79.02C86.6599 79.02 87.2099 79.136 87.6139 79.368C88.0179 79.6 88.3079 79.928 88.4839 80.352C88.6599 80.776 88.7479 81.28 88.7479 81.864V82.428H86.8159V81.744C86.8159 81.488 86.7999 81.263 86.7679 81.066C86.7359 80.87 86.6619 80.716 86.5459 80.604C86.4299 80.492 86.2439 80.436 85.9879 80.436C85.7239 80.436 85.5319 80.504 85.4119 80.64C85.2919 80.776 85.2159 80.951 85.1839 81.162C85.1519 81.374 85.1359 81.6 85.1359 81.84V86.148C85.1359 86.42 85.1599 86.664 85.2079 86.88C85.2559 87.096 85.3459 87.264 85.4779 87.384C85.6099 87.504 85.7999 87.564 86.0479 87.564C86.2959 87.564 86.4879 87.5 86.6239 87.372C86.7599 87.244 86.8539 87.07 86.9059 86.85C86.9579 86.63 86.9839 86.38 86.9839 86.1V85.068H86.0359V83.868H88.7719V88.86H87.4759L87.3559 87.984C87.2279 88.28 87.0359 88.524 86.7799 88.716C86.5239 88.908 86.1799 89.004 85.7479 89.004Z" fill="#263238"/>
<path d="M90.1279 88.8601V79.1401H94.3639V80.5081H92.1079V83.0881H93.8479V84.4681H92.1079V87.5161H94.3879V88.8601H90.1279Z" fill="#263238"/>
<path d="M99.3439 88.8601V81.0601C99.2719 81.1001 99.1739 81.1421 99.0499 81.1861C98.9259 81.2301 98.7919 81.2781 98.6479 81.3301C98.5039 81.3821 98.3679 81.4301 98.2399 81.4741C98.1119 81.5191 98.0119 81.5561 97.9399 81.5881V80.2201C98.0359 80.1721 98.1659 80.1081 98.3299 80.0281C98.4929 79.9481 98.6679 79.8601 98.8519 79.7641C99.0359 79.6681 99.2099 79.5641 99.3739 79.4521C99.5379 79.3401 99.6639 79.2361 99.7519 79.1401H101.192V88.8601H99.3439Z" fill="#263238"/>
<path d="M65.36 97.8081H114.12" stroke="#263238" stroke-miterlimit="10"/>
<path d="M65.36 104.592H114.12" stroke="#263238" stroke-miterlimit="10"/>
<path d="M65.36 111.376H114.12" stroke="#263238" stroke-miterlimit="10"/>
<path d="M65.36 118.16H114.12" stroke="#263238" stroke-miterlimit="10"/>
<path d="M222.518 133.059H164.325V84.2451H113.076" stroke="#263238" stroke-miterlimit="10"/>
<path d="M412.543 465.131C412.543 465.131 410.782 468.813 408.061 471.054C405.34 473.295 400.377 476.977 399.257 477.937C398.137 478.897 398.297 479.858 402.138 480.978C405.98 482.099 411.582 482.099 414.464 480.978C417.345 479.858 420.067 480.018 421.507 479.377C422.948 478.737 423.748 478.096 423.908 476.496C424.068 474.895 422.627 464.971 422.627 464.971L412.543 465.131Z" fill="#C7FF02" stroke="#263238" stroke-miterlimit="10" stroke-linecap="round" stroke-linejoin="round"/>
<path d="M423.887 475.361C422.767 475.674 420.916 476.287 418.305 477.457C413.663 479.538 412.863 480.178 407.1 480.178C403.203 480.178 400.775 478.643 399.608 477.647C399.471 477.758 399.347 477.859 399.256 477.937C398.136 478.897 398.296 479.858 402.137 480.978C405.979 482.099 411.581 482.099 414.463 480.978C417.344 479.858 420.066 480.018 421.506 479.377C422.947 478.737 423.747 478.096 423.907 476.496C423.931 476.269 423.921 475.871 423.887 475.361Z" fill="white" stroke="#263238" stroke-miterlimit="10" stroke-linecap="round" stroke-linejoin="round"/>
<path d="M431.271 466.892C431.271 466.892 428.39 475.856 427.109 478.097C425.828 480.338 422.947 482.579 423.107 484.18C423.267 485.781 426.148 486.261 431.111 486.261C436.074 486.261 439.435 485.301 440.875 482.739C442.316 480.178 442.476 479.538 443.276 477.937C444.076 476.336 442.796 466.732 442.796 466.732C442.796 466.732 432.712 467.052 431.271 466.892Z" fill="#C7FF02" stroke="#263238" stroke-miterlimit="10" stroke-linecap="round" stroke-linejoin="round"/>
<path d="M440.876 482.739C442.317 480.178 442.477 479.538 443.277 477.937C443.519 477.452 443.57 476.231 443.524 474.767C442.933 475.808 442.261 477.051 441.516 478.417C439.595 481.939 438.475 483.539 431.912 483.859C427.241 484.087 424.524 483.505 423.341 483.15C423.168 483.515 423.075 483.86 423.107 484.179C423.267 485.78 426.148 486.26 431.111 486.26C436.074 486.26 439.435 485.3 440.876 482.739Z" fill="white" stroke="#263238" stroke-miterlimit="10" stroke-linecap="round" stroke-linejoin="round"/>
<path d="M397.976 355.641C397.976 355.641 397.176 371.488 397.816 383.654C398.456 395.82 405.179 418.87 405.179 418.87C405.179 418.87 408.381 438.399 409.341 444.002C410.301 449.605 412.382 462.25 412.382 462.25L423.267 461.61C423.267 461.61 423.267 446.563 423.267 443.202C423.267 439.84 422.787 418.711 422.787 418.711C422.787 418.711 428.39 447.524 428.87 450.726C429.35 453.928 430.471 463.372 430.471 463.372C430.471 463.372 433.993 464.493 436.074 464.493C438.155 464.493 443.277 463.052 443.277 463.052C443.277 463.052 445.198 443.843 445.038 438.081C444.878 432.318 442.317 423.674 441.516 421.113C440.716 418.552 438.315 411.028 438.475 410.388C438.635 409.748 440.396 388.618 440.396 384.296C440.396 379.974 440.396 372.771 440.396 372.771L437.034 355.803L435.593 353.242C435.593 353.242 416.864 356.444 408.381 354.202C399.897 351.961 397.656 351.321 397.656 351.321L397.976 355.641Z" fill="#263238" stroke="#263238" stroke-miterlimit="10" stroke-linecap="round" stroke-linejoin="round"/>
<path d="M409.501 377.091L415.424 381.573C415.424 381.573 418.946 405.744 421.027 413.268" stroke="#949494" stroke-miterlimit="10" stroke-linecap="round" stroke-linejoin="round"/>
<path d="M410.622 457.608C410.622 457.608 416.385 457.448 420.386 457.448C424.388 457.448 425.028 457.608 425.028 458.569C425.028 459.529 425.508 465.292 425.028 465.932C424.548 466.572 419.906 466.572 417.505 466.572C415.104 466.572 411.902 467.052 411.582 465.612C411.262 464.171 411.262 462.411 410.782 461.13C410.302 459.849 409.662 458.728 410.622 457.608Z" fill="#707070" stroke="#263238" stroke-miterlimit="10" stroke-linecap="round" stroke-linejoin="round"/>
<path d="M429.03 458.728C429.03 458.728 428.55 460.169 428.71 461.129C428.87 462.09 429.19 465.131 429.19 466.572C429.19 468.013 428.87 467.692 432.231 468.813C435.593 469.934 442.796 468.813 443.596 467.853C444.396 466.893 444.396 461.77 444.396 460.65C444.396 459.529 444.076 459.049 442.955 459.369C441.835 459.689 436.072 460.65 433.991 460.169C431.91 459.689 430.469 459.048 430.469 459.048C430.469 459.048 429.351 457.768 429.03 458.728Z" fill="#707070" stroke="#263238" stroke-miterlimit="10" stroke-linecap="round" stroke-linejoin="round"/>
<path d="M430.631 285.689L424.548 282.487L409.341 286.649C409.341 286.649 405.019 294.172 404.219 300.575C403.419 306.978 402.298 339.313 402.298 345.235C402.298 351.158 401.978 355.64 401.978 355.64C401.978 355.64 405.98 358.521 413.023 358.842C420.066 359.162 423.661 358.771 426.149 358.522C427.75 358.362 433.032 355.32 433.032 355.32C433.032 355.32 432.071 324.906 432.071 320.584C432.071 316.262 435.112 295.773 435.753 292.891C436.394 290.011 430.631 285.689 430.631 285.689Z" fill="#707070" stroke="#263238" stroke-miterlimit="10" stroke-linecap="round" stroke-linejoin="round"/>
<path d="M421.44 288.542C422.558 291.61 420.512 295.173 416.869 296.502C413.226 297.83 409.366 296.42 408.248 293.352C407.13 290.284 409.176 286.721 412.819 285.392C416.462 284.065 420.322 285.475 421.44 288.542Z" fill="white" stroke="#263238" stroke-miterlimit="10" stroke-linecap="round" stroke-linejoin="round"/>
<path d="M412.863 290.651C412.863 290.651 418.786 297.214 419.266 296.894C419.746 296.574 428.39 284.728 428.39 284.728L426.149 281.046L412.863 290.651Z" fill="white" stroke="#263238" stroke-miterlimit="10" stroke-linecap="round" stroke-linejoin="round"/>
<path d="M412.383 283.448C412.383 283.448 411.423 285.529 410.622 286.489C409.822 287.45 407.741 294.813 407.741 294.813L412.863 290.651C412.863 290.651 413.183 286.009 413.343 284.888C413.503 283.768 412.383 283.448 412.383 283.448Z" fill="white" stroke="#263238" stroke-miterlimit="10" stroke-linecap="round" stroke-linejoin="round"/>
<path d="M411.422 275.124C411.422 275.124 412.382 277.685 412.382 278.486C412.382 279.286 411.742 291.132 412.862 290.652C413.982 290.172 425.668 282.328 426.148 281.048C426.628 279.767 425.828 272.084 426.148 270.163C426.468 268.242 427.109 265.361 427.109 265.361C427.109 265.361 422.467 270.163 418.785 272.244C415.104 274.324 411.422 275.124 411.422 275.124Z" fill="#B5B5B5" stroke="#263238" stroke-miterlimit="10" stroke-linecap="round" stroke-linejoin="round"/>
<path d="M412.383 278.486C412.383 278.878 412.229 281.924 412.205 284.872L422.769 274.072L411.563 275.509C411.828 276.253 412.383 277.877 412.383 278.486Z" fill="#263238" stroke="#263238" stroke-miterlimit="10" stroke-linecap="round" stroke-linejoin="round"/>
<path d="M440.236 336.272L443.438 324.587C443.438 324.587 444.401 309.041 446.066 302.381C447.731 295.721 451.762 292.092 451.762 292.092C450.962 290.651 441.037 287.93 437.996 286.809C434.955 285.689 427.271 282.967 427.271 282.967C427.271 282.967 421.828 303.617 421.508 312.421C421.188 321.225 420.708 326.667 421.988 335.151C423.269 343.635 416.398 363.854 419.76 368.976C423.122 374.098 429.954 373.942 433.079 374.637C439.073 375.969 447.237 372.428 447.397 371.307C447.557 370.186 444.718 364.284 442.317 354.039C439.915 343.796 440.236 336.272 440.236 336.272Z" fill="#C7FF02" stroke="#263238" stroke-miterlimit="10" stroke-linecap="round" stroke-linejoin="round"/>
<path d="M437.954 353.155L424.495 351.514L423.838 355.781L438.282 358.407" stroke="#263238" stroke-miterlimit="10" stroke-linecap="round" stroke-linejoin="round"/>
<path d="M396.269 292.829C396.269 292.829 393.161 293.394 391.466 295.937C389.771 298.48 376.491 332.668 376.209 334.646C375.926 336.624 377.622 339.732 380.165 340.862C382.708 341.992 383.556 344.253 384.403 342.84C385.251 341.427 393.727 329.843 393.727 329.843L397.4 297.068L396.269 292.829Z" fill="#C7FF02" stroke="#263238" stroke-miterlimit="10" stroke-linecap="round" stroke-linejoin="round"/>
<path d="M382.707 323.909C382.707 323.909 374.796 333.798 374.513 336.058C374.23 338.318 373.948 340.861 375.078 342.557C376.208 344.252 381.294 345.383 383.272 344.535C385.25 343.687 388.923 333.233 388.923 333.233L382.707 323.909Z" fill="#C7FF02" stroke="#263238" stroke-miterlimit="10" stroke-linecap="round" stroke-linejoin="round"/>
<path d="M411.903 284.088C411.903 284.088 408.701 291.131 407.261 297.534C405.82 303.937 404.38 316.263 404.22 323.946C404.06 331.63 402.939 363.804 402.779 366.525C402.619 369.246 400.538 370.687 397.497 371.327C394.456 371.967 390.774 371.327 390.774 371.327C390.774 371.327 394.136 348.436 394.296 344.755C394.456 341.073 394.456 335.631 394.456 332.59C394.456 329.549 393.04 314.028 392.88 310.347C392.72 306.665 395.79 293.63 396.271 292.829C396.751 292.029 405.021 288.73 405.662 288.25C406.3 287.77 410.142 285.369 411.903 284.088Z" fill="#C7FF02" stroke="#263238" stroke-miterlimit="10" stroke-linecap="round" stroke-linejoin="round"/>
<path d="M394.293 354.468L399.874 353.811L400.859 350.857L394.95 351.514" stroke="#263238" stroke-miterlimit="10" stroke-linecap="round" stroke-linejoin="round"/>
<path d="M424.868 337.553C424.708 340.434 424.708 342.035 424.708 342.035" stroke="#263238" stroke-miterlimit="10" stroke-linecap="round" stroke-linejoin="round"/>
<path d="M432.114 291.066C432.161 296.469 432.232 304.258 432.232 304.258L426.309 306.979L429.831 313.222C429.831 313.222 426.901 326.311 425.542 333.413" stroke="#263238" stroke-miterlimit="10" stroke-linecap="round" stroke-linejoin="round"/>
<path d="M432.072 286.009C432.072 286.133 432.083 287.412 432.099 289.241" stroke="#263238" stroke-miterlimit="10" stroke-linecap="round" stroke-linejoin="round"/>
<path d="M401.207 331.289C399.894 323.536 397.656 310.82 397.656 310.82L402.938 305.217L399.256 302.336C399.256 302.336 400.377 300.095 401.337 298.334C402.298 296.573 406.459 289.05 406.459 289.05" stroke="#263238" stroke-miterlimit="10" stroke-linecap="round" stroke-linejoin="round"/>
<path d="M401.978 335.952C401.875 335.296 401.728 334.396 401.55 333.325" stroke="#263238" stroke-miterlimit="10" stroke-linecap="round" stroke-linejoin="round"/>
<path d="M406.158 256.334C405.657 256.301 399.422 256.725 399.088 251.67C398.753 246.616 403.195 245.401 403.195 245.401C403.195 245.401 399.287 241.115 404.307 238.765C409.328 236.415 415.285 237.65 415.285 237.65C415.285 237.65 414.706 233.753 419.326 234.899C423.947 236.045 427.12 241.288 427.254 241.801C427.388 242.314 433.79 244.416 435.917 247.745C438.044 251.074 437.421 255.394 435.718 258.3C434.015 261.206 430.364 265.66 430.364 265.66C430.364 265.66 428.583 267.219 426.133 266.217C423.684 265.215 422.058 264.436 422.191 262.432C422.324 260.428 421.678 255.017 421.054 254.305C420.43 253.593 418.938 253.326 415.877 253.961C412.815 254.597 406.158 256.334 406.158 256.334Z" fill="#263238" stroke="#263238" stroke-miterlimit="10" stroke-linecap="round" stroke-linejoin="round"/>
<path d="M406.091 254.82C406.091 254.82 405.78 259.496 405.357 260.81C404.934 262.124 403.288 271.743 403.088 274.75C402.888 277.756 406.084 280.149 407.754 280.26C409.424 280.371 412.207 278.879 414.757 278.377C417.306 277.876 424.175 275.481 425.289 273.877C426.402 272.274 426.769 271.795 426.769 271.795C426.769 271.795 432.035 270.803 432.825 266.494C433.615 262.185 430.798 261.662 428.716 262.698C426.634 263.734 425.565 264.669 425.565 264.669C425.565 264.669 424.062 264.569 424.307 263.411C424.552 262.253 424.73 262.097 424.785 261.262C424.841 260.427 424.373 259.893 423.827 258.011C423.281 256.13 422.936 256.274 423.715 254.649C424.494 253.023 426.03 250.106 426.03 250.106C426.03 250.106 411.568 250.656 406.091 254.82Z" fill="#B5B5B5" stroke="#263238" stroke-miterlimit="10" stroke-linecap="round" stroke-linejoin="round"/>
<path d="M413.105 255.933C413.105 255.933 415.569 255.609 417.206 256.694" stroke="#263238" stroke-miterlimit="10" stroke-linecap="round" stroke-linejoin="round"/>
<path d="M408.81 255.647C408.81 255.647 407.794 255.01 406.211 255.556" stroke="#263238" stroke-miterlimit="10" stroke-linecap="round" stroke-linejoin="round"/>
<path d="M407.084 270.151C407.084 270.151 409.188 271.298 412.005 269.304" stroke="#263238" stroke-miterlimit="10" stroke-linecap="round" stroke-linejoin="round"/>
<path d="M415.354 259.294C415.317 259.847 414.839 260.266 414.285 260.229C413.732 260.192 413.313 259.714 413.35 259.16C413.387 258.606 413.865 258.188 414.419 258.225C414.973 258.262 415.391 258.741 415.354 259.294Z" fill="#263238"/>
<path d="M408.039 258.305C408.008 258.766 407.61 259.115 407.148 259.085C406.687 259.054 406.338 258.656 406.368 258.194C406.399 257.733 406.797 257.384 407.259 257.414C407.721 257.445 408.07 257.844 408.039 258.305Z" fill="#263238"/>
<path d="M409.432 258.538C409.432 258.538 402.808 263.828 403.354 265.71C403.9 267.592 409.444 267.457 409.444 267.457" fill="#B5B5B5"/>
<path d="M409.432 258.538C409.432 258.538 402.808 263.828 403.354 265.71C403.9 267.592 409.444 267.457 409.444 267.457" stroke="#263238" stroke-miterlimit="10" stroke-linecap="round" stroke-linejoin="round"/>
<path d="M386.098 314.303L389.771 310.912C389.771 310.912 394.009 312.89 393.727 314.868C393.444 316.845 386.098 314.303 386.098 314.303Z" fill="#B5B5B5" stroke="#263238" stroke-miterlimit="10" stroke-linecap="round" stroke-linejoin="round"/>
<path d="M384.394 315.884L388.067 312.493C388.067 312.493 392.305 314.471 392.023 316.449C391.74 318.427 384.394 315.884 384.394 315.884Z" fill="#B5B5B5" stroke="#263238" stroke-miterlimit="10" stroke-linecap="round" stroke-linejoin="round"/>
<path d="M398.326 314.861C398.326 314.861 398.691 311.82 400.029 311.82C401.367 311.82 402.584 312.672 402.219 314.253C401.854 315.835 401.002 317.538 401.002 317.538L398.326 314.861Z" fill="#B5B5B5" stroke="#263238" stroke-miterlimit="10" stroke-linecap="round" stroke-linejoin="round"/>
<path d="M389.771 310.912C389.771 310.912 389.771 309.499 392.879 310.347C395.987 311.195 397.682 314.585 396.835 315.998C395.987 317.411 393.727 314.868 393.727 314.868C393.727 314.868 392.596 311.76 389.771 310.912Z" fill="#B5B5B5" stroke="#263238" stroke-miterlimit="10" stroke-linecap="round" stroke-linejoin="round"/>
<path d="M374.191 313.642L387.843 344.276L412.484 346.274L400.83 314.974L374.191 313.642Z" fill="#263238" stroke="#263238" stroke-miterlimit="10" stroke-linecap="round" stroke-linejoin="round"/>
<path d="M445.73 289.501C445.73 289.501 440.548 291.558 439.538 295.212C438.528 298.866 439.499 333.516 439.499 333.516L416.048 332.386L415.2 343.123L444.057 350.474C444.057 350.474 448.265 351.375 450.325 348.667C452.385 345.959 455.232 307.679 455.579 303.58C455.926 299.481 456.223 293.663 452.683 291.767C449.143 289.87 448.52 289.929 445.73 289.501Z" fill="#C7FF02" stroke="#263238" stroke-miterlimit="10" stroke-linecap="round" stroke-linejoin="round"/>
<path d="M439.499 333.516C439.499 333.516 443.863 334.443 446.161 336.413" stroke="#263238" stroke-miterlimit="10" stroke-linecap="round" stroke-linejoin="round"/>
<path d="M416.047 332.386C416.047 332.386 414.917 332.951 411.809 330.691C408.701 328.431 406.158 328.148 406.158 328.148L406.723 331.256C406.723 331.256 397.399 332.386 396.551 333.234C395.703 334.082 394.856 336.342 397.116 337.19C399.376 338.038 399.942 337.19 400.789 338.603C401.637 340.016 404.745 342.276 406.44 342.841C408.135 343.406 415.482 340.581 415.482 340.581L416.047 332.386Z" fill="#B5B5B5" stroke="#263238" stroke-miterlimit="10" stroke-linecap="round" stroke-linejoin="round"/>
</svg>
