<svg width="500" height="500" viewBox="0 0 500 500" fill="none" xmlns="http://www.w3.org/2000/svg">
<path d="M436.245 211.169C424.841 196.836 423.385 177.806 421.963 160.269C420.646 144.031 413.82 125.197 402.024 113.157C393.184 104.134 381.207 99.5921 368.691 99.0361C349.778 98.1971 331.453 104.423 313.031 107.619C274.024 114.387 272.074 75.5231 190.159 79.5941C108.244 83.6651 90.691 132.739 86.79 166.181C82.889 199.624 118.971 213.55 102.393 239.148C85.815 264.746 68.262 269.937 75.088 302.591C81.914 335.245 104.343 354.075 154.077 355.296C203.811 356.516 232.091 309.579 261.347 307.429C290.602 305.279 306.205 355.816 373.492 346.97C404.175 342.936 433.418 325.446 446.923 296.877C454.816 280.181 456.246 260.778 451.909 242.908C449.833 234.355 446.456 225.945 441.696 218.521C440.059 215.968 438.154 213.568 436.245 211.169Z" fill="#2FC765"/>
<path opacity="0.7" d="M436.245 211.169C424.841 196.836 423.385 177.806 421.963 160.269C420.646 144.031 413.82 125.197 402.024 113.157C393.184 104.134 381.207 99.5921 368.691 99.0361C349.778 98.1971 331.453 104.423 313.031 107.619C274.024 114.387 272.074 75.5231 190.159 79.5941C108.244 83.6651 90.691 132.739 86.79 166.181C82.889 199.624 118.971 213.55 102.393 239.148C85.815 264.746 68.262 269.937 75.088 302.591C81.914 335.245 104.343 354.075 154.077 355.296C203.811 356.516 232.091 309.579 261.347 307.429C290.602 305.279 306.205 355.816 373.492 346.97C404.175 342.936 433.418 325.446 446.923 296.877C454.816 280.181 456.246 260.778 451.909 242.908C449.833 234.355 446.456 225.945 441.696 218.521C440.059 215.968 438.154 213.568 436.245 211.169Z" fill="white"/>
<path d="M429 249.888C427.51 226.132 413.539 205.77 393.568 195.264C397.431 186.839 399.601 177.477 399.601 167.603C399.601 130.897 369.845 101.142 333.14 101.142C313.54 101.142 295.925 109.631 283.761 123.128C273.762 99.0718 250.046 82.1528 222.371 82.1528C185.666 82.1528 155.91 111.909 155.91 148.614C155.91 154.175 156.603 159.573 157.89 164.736C155.848 164.547 153.782 164.438 151.69 164.438C114.984 164.438 85.229 194.194 85.229 230.899C85.229 237.5 86.205 243.87 87.997 249.888H429Z" fill="#2FC765" stroke="#263238" stroke-miterlimit="10" stroke-linecap="round" stroke-linejoin="round"/>
<path d="M87.996 249.888H429C428.864 247.717 428.621 245.575 428.281 243.465H86.433C86.852 245.645 87.371 247.789 87.996 249.888Z" fill="#263238" stroke="#263238" stroke-width="0.75" stroke-miterlimit="10" stroke-linecap="round" stroke-linejoin="round"/>
<path d="M196.896 141.821L199.308 140.722L198.797 137.826L196.136 137.619C195.794 136.72 195.345 135.874 194.804 135.097L196.176 132.78L194.096 130.7L191.76 132.087C190.441 131.192 188.929 130.562 187.3 130.267L186.625 127.599H183.684L183.007 130.284C182.082 130.46 181.196 130.744 180.362 131.124L178.259 129.304L175.85 130.991L176.843 133.593C176.198 134.253 175.629 134.988 175.154 135.785L172.385 135.499L171.379 138.263L173.671 139.818C173.564 140.453 173.506 141.105 173.506 141.77C173.506 142.048 173.519 142.323 173.538 142.596L171.126 143.943L171.887 146.784L174.617 146.749C175.021 147.606 175.526 148.406 176.116 149.134L174.937 151.583L177.19 153.474L179.374 151.91C180.194 152.382 181.075 152.757 182.004 153.02L182.442 155.654L185.372 155.91L186.256 153.416C187.236 153.328 188.181 153.12 189.076 152.805L190.925 154.684L193.472 153.213L192.772 150.68C193.509 150.053 194.166 149.337 194.729 148.547L197.317 149.024L198.56 146.358L196.53 144.682C196.766 143.767 196.892 142.808 196.896 141.821ZM192.546 141.77C192.546 145.826 189.258 149.114 185.202 149.114C181.146 149.114 177.858 145.826 177.858 141.77C177.858 137.714 181.146 134.426 185.202 134.426C189.258 134.426 192.546 137.714 192.546 141.77Z" fill="#263238"/>
<path d="M86.866 219.383H140.19L148.791 227.984H423.582" stroke="#263238" stroke-miterlimit="10" stroke-linecap="round" stroke-linejoin="round"/>
<path d="M282.961 243.895V138.967H345.316V102.844" stroke="#263238" stroke-miterlimit="10" stroke-linecap="round" stroke-linejoin="round"/>
<path d="M248.804 116.511L250.279 115.839L249.967 114.068L248.34 113.942C248.131 113.392 247.857 112.876 247.526 112.4L248.365 110.983L247.094 109.712L245.666 110.56C244.86 110.013 243.936 109.628 242.94 109.447L242.527 107.816H240.729L240.315 109.457C239.75 109.564 239.208 109.739 238.698 109.971L237.413 108.858L235.94 109.889L236.547 111.479C236.152 111.882 235.805 112.332 235.514 112.819L233.821 112.645L233.206 114.334L234.607 115.285C234.542 115.673 234.506 116.072 234.506 116.478C234.506 116.648 234.514 116.816 234.526 116.983L233.051 117.806L233.516 119.543L235.185 119.522C235.432 120.046 235.74 120.535 236.102 120.98L235.381 122.477L236.758 123.633L238.093 122.677C238.594 122.965 239.133 123.195 239.701 123.356L239.969 124.966L241.76 125.123L242.3 123.598C242.899 123.544 243.476 123.417 244.024 123.225L245.154 124.373L246.711 123.474L246.283 121.925C246.734 121.542 247.135 121.104 247.479 120.621L249.061 120.913L249.821 119.284L248.58 118.259C248.725 117.701 248.802 117.115 248.804 116.511ZM246.145 116.48C246.145 118.959 244.135 120.969 241.656 120.969C239.177 120.969 237.167 118.959 237.167 116.48C237.167 114.001 239.177 111.991 241.656 111.991C244.135 111.991 246.145 114.001 246.145 116.48Z" fill="#263238"/>
<path d="M271.573 136.788L273.048 136.116L272.736 134.345L271.109 134.219C270.9 133.669 270.626 133.152 270.295 132.677L271.134 131.26L269.863 129.989L268.435 130.837C267.629 130.29 266.705 129.905 265.709 129.724L265.296 128.093H263.498L263.084 129.734C262.519 129.841 261.977 130.015 261.467 130.248L260.182 129.136L258.709 130.167L259.316 131.758C258.921 132.161 258.574 132.611 258.283 133.098L256.59 132.924L255.975 134.613L257.376 135.564C257.311 135.952 257.275 136.351 257.275 136.758C257.275 136.928 257.283 137.096 257.295 137.263L255.821 138.086L256.286 139.823L257.955 139.802C258.202 140.326 258.51 140.815 258.871 141.26L258.151 142.757L259.528 143.913L260.863 142.957C261.364 143.245 261.903 143.475 262.471 143.636L262.739 145.246L264.53 145.403L265.07 143.878C265.669 143.824 266.247 143.697 266.794 143.505L267.924 144.653L269.481 143.754L269.053 142.205C269.504 141.822 269.905 141.384 270.249 140.901L271.831 141.193L272.591 139.564L271.35 138.539C271.494 137.977 271.571 137.391 271.573 136.788ZM268.914 136.757C268.914 139.236 266.904 141.246 264.425 141.246C261.946 141.246 259.936 139.236 259.936 136.757C259.936 134.278 261.946 132.268 264.425 132.268C266.904 132.268 268.914 134.277 268.914 136.757Z" fill="#263238"/>
<path d="M119.119 215.082C122.444 215.082 125.139 212.387 125.139 209.062C125.139 205.737 122.444 203.042 119.119 203.042C115.794 203.042 113.099 205.737 113.099 209.062C113.099 212.387 115.794 215.082 119.119 215.082Z" fill="#263238"/>
<path d="M119.119 213.792C121.731 213.792 123.849 211.674 123.849 209.062C123.849 206.45 121.731 204.332 119.119 204.332C116.507 204.332 114.389 206.45 114.389 209.062C114.389 211.674 116.507 213.792 119.119 213.792Z" fill="#2FC765" stroke="#263238" stroke-miterlimit="10" stroke-linecap="round" stroke-linejoin="round"/>
<path d="M227.487 194.731H179.323V218.383H227.487V194.731Z" fill="white" stroke="#263238" stroke-width="0.75" stroke-miterlimit="10" stroke-linecap="round" stroke-linejoin="round"/>
<path d="M210.286 145.708H162.122V243.756H210.286V145.708Z" fill="white" stroke="#263238" stroke-width="0.75" stroke-miterlimit="10" stroke-linecap="round" stroke-linejoin="round"/>
<path d="M334.995 234.725H223.295L234.465 169.075H323.825L334.995 234.725Z" fill="white" stroke="#263238" stroke-width="0.75" stroke-miterlimit="10" stroke-linecap="round" stroke-linejoin="round"/>
<path d="M248.989 172.37H237.808V180.541H248.989V172.37Z" fill="#263238"/>
<path d="M263.61 172.37H252.429V180.541H263.61V172.37Z" fill="#263238"/>
<path d="M315.644 172.37H288.122V180.541H315.644V172.37Z" fill="#263238"/>
<path d="M344.026 178.106H214.264V243.755H344.026V178.106Z" fill="white" stroke="#263238" stroke-width="0.75" stroke-miterlimit="10" stroke-linecap="round" stroke-linejoin="round"/>
<path d="M264.47 183.98H262.75V201.611H264.47V183.98Z" fill="#263238"/>
<path d="M270.49 183.98H268.77V201.611H270.49V183.98Z" fill="#263238"/>
<path d="M276.511 183.98H274.791V201.611H276.511V183.98Z" fill="#263238"/>
<path d="M324.675 183.98H322.955V201.611H324.675V183.98Z" fill="#263238"/>
<path d="M330.695 183.98H328.975V201.611H330.695V183.98Z" fill="#263238"/>
<path d="M336.715 183.98H334.995V201.611H336.715V183.98Z" fill="#263238"/>
<path d="M344.026 199.032H214.264V214.083H344.026V199.032Z" fill="white" stroke="#263238" stroke-width="0.75" stroke-miterlimit="10" stroke-linecap="round" stroke-linejoin="round"/>
<path d="M268.34 201.612H264.47V205.482H268.34V201.612Z" fill="#263238"/>
<path d="M276.726 201.612H272.856V205.482H276.726V201.612Z" fill="#263238"/>
<path d="M285.111 201.612H281.241V205.482H285.111V201.612Z" fill="#263238"/>
<path d="M268.34 207.847H264.47V211.717H268.34V207.847Z" fill="#263238"/>
<path d="M276.726 207.847H272.856V211.717H276.726V207.847Z" fill="#263238"/>
<path d="M285.111 207.847H281.241V211.717H285.111V207.847Z" fill="#263238"/>
<path d="M188.999 215.588H185.129V219.458H188.999V215.588Z" fill="#263238"/>
<path d="M197.384 215.588H193.514V219.458H197.384V215.588Z" fill="#263238"/>
<path d="M205.77 215.588H201.9V219.458H205.77V215.588Z" fill="#263238"/>
<path d="M323.599 207.847H319.729V211.717H323.599V207.847Z" fill="#263238"/>
<path d="M331.985 207.847H328.115V211.717H331.985V207.847Z" fill="#263238"/>
<path d="M340.371 207.847H336.501V211.717H340.371V207.847Z" fill="#263238"/>
<path d="M344.026 214.083H214.264V220.103H344.026V214.083Z" fill="#263238" stroke="#263238" stroke-width="0.75" stroke-miterlimit="10" stroke-linecap="round" stroke-linejoin="round"/>
<path d="M206.845 175.81C206.845 176.998 205.882 177.96 204.695 177.96C203.508 177.96 202.545 176.997 202.545 175.81C202.545 174.623 203.508 173.66 204.695 173.66C205.882 173.66 206.845 174.622 206.845 175.81Z" fill="#263238"/>
<path d="M191.228 151.805C191.228 152.993 190.265 153.955 189.078 153.955C187.891 153.955 186.928 152.992 186.928 151.805C186.928 150.617 187.891 149.655 189.078 149.655C190.265 149.655 191.228 150.618 191.228 151.805Z" fill="#263238"/>
<path d="M206.845 151.805C206.845 152.993 205.882 153.955 204.695 153.955C203.508 153.955 202.545 152.992 202.545 151.805C202.545 150.617 203.508 149.655 204.695 149.655C205.882 149.655 206.845 150.618 206.845 151.805Z" fill="#263238"/>
<path d="M206.845 187.851C206.845 189.039 205.882 190.001 204.695 190.001C203.508 190.001 202.545 189.038 202.545 187.851C202.545 186.664 203.508 185.701 204.695 185.701C205.882 185.701 206.845 186.663 206.845 187.851Z" fill="#263238"/>
<path d="M206.845 199.892C206.845 201.08 205.882 202.042 204.695 202.042C203.508 202.042 202.545 201.079 202.545 199.892C202.545 198.704 203.508 197.742 204.695 197.742C205.882 197.742 206.845 198.704 206.845 199.892Z" fill="#263238"/>
<path d="M230.927 187.851C230.927 184.526 228.232 181.831 224.906 181.831C221.581 181.831 218.886 184.526 218.886 187.851C218.886 191.176 221.581 193.872 224.906 193.872C228.232 193.871 230.927 191.176 230.927 187.851Z" fill="#263238"/>
<path d="M229.637 187.851C229.637 185.238 227.519 183.121 224.907 183.121C222.294 183.121 220.177 185.239 220.177 187.851C220.177 190.463 222.295 192.581 224.907 192.581C227.52 192.581 229.637 190.463 229.637 187.851Z" fill="white" stroke="#263238" stroke-width="0.75" stroke-miterlimit="10" stroke-linecap="round" stroke-linejoin="round"/>
<path d="M197.385 198.172C197.385 194.847 194.69 192.151 191.364 192.151C188.039 192.151 185.344 194.847 185.344 198.172C185.344 201.497 188.039 204.192 191.364 204.192C194.689 204.192 197.385 201.497 197.385 198.172Z" fill="#263238"/>
<path d="M196.095 198.172C196.095 195.559 193.977 193.442 191.365 193.442C188.753 193.442 186.635 195.56 186.635 198.172C186.635 200.784 188.753 202.902 191.365 202.902C193.977 202.902 196.095 200.784 196.095 198.172Z" fill="white" stroke="#263238" stroke-width="0.75" stroke-miterlimit="10" stroke-linecap="round" stroke-linejoin="round"/>
<path d="M208.996 211.503H173.733V241.605" stroke="#263238" stroke-width="0.75" stroke-miterlimit="10" stroke-linecap="round" stroke-linejoin="round"/>
<path d="M207.706 157.749H185.774L176.958 148.933H164.272" stroke="#263238" stroke-width="0.75" stroke-miterlimit="10" stroke-linecap="round" stroke-linejoin="round"/>
<path d="M282.101 185.271H290.272" stroke="#263238" stroke-width="0.75" stroke-miterlimit="10" stroke-linecap="round" stroke-linejoin="round"/>
<path d="M282.101 188.711H290.272" stroke="#263238" stroke-width="0.75" stroke-miterlimit="10" stroke-linecap="round" stroke-linejoin="round"/>
<path d="M282.101 192.151H290.272" stroke="#263238" stroke-width="0.75" stroke-miterlimit="10" stroke-linecap="round" stroke-linejoin="round"/>
<path d="M366.666 156.147C366.666 156.147 363.987 155.359 362.411 157.881C360.835 160.403 362.569 166.55 363.199 168.126C363.829 169.702 366.351 168.756 366.351 168.756L367.139 170.805L369.346 170.49V167.653C369.346 167.653 370.922 164.186 370.607 160.403C370.291 156.62 367.612 156.147 366.666 156.147Z" fill="white" stroke="#263238" stroke-width="0.75" stroke-miterlimit="10" stroke-linecap="round" stroke-linejoin="round"/>
<path d="M366.371 183.984L355.072 184.294L367.764 185.842L366.371 183.984Z" fill="white" stroke="#263238" stroke-width="0.75" stroke-miterlimit="10" stroke-linecap="round" stroke-linejoin="round"/>
<path d="M362.568 210.049C362.568 210.049 362.057 221.652 361.742 226.223C361.427 230.794 361.269 241.353 361.269 241.353H362.53L365.052 221.809L366.509 209.89L362.568 210.049Z" fill="white" stroke="#263238" stroke-width="0.75" stroke-miterlimit="10" stroke-linecap="round" stroke-linejoin="round"/>
<path d="M367.769 209.891L370.095 227.169L376.715 241.354H377.976L372.775 226.381L372.34 210.049L367.769 209.891Z" fill="white" stroke="#263238" stroke-width="0.75" stroke-miterlimit="10" stroke-linecap="round" stroke-linejoin="round"/>
<path d="M361.269 241.354L357.959 244.979L362.53 243.245V241.354H361.269Z" fill="white" stroke="#263238" stroke-width="0.75" stroke-miterlimit="10" stroke-linecap="round" stroke-linejoin="round"/>
<path d="M376.715 241.354L373.405 244.979L377.976 243.245V241.354H376.715Z" fill="white" stroke="#263238" stroke-width="0.75" stroke-miterlimit="10" stroke-linecap="round" stroke-linejoin="round"/>
<path d="M367.139 170.804C367.139 170.804 363.514 178.054 363.514 179C363.514 179.946 366.193 185.147 366.193 185.147L361.447 217.765H374.371L373.286 200.593C373.286 200.593 374.074 195.392 372.813 191.294C371.552 187.196 370.449 184.359 370.449 184.359L372.025 177.424L369.346 170.489L367.139 170.804Z" fill="#263238" stroke="#263238" stroke-width="0.75" stroke-miterlimit="10" stroke-linecap="round" stroke-linejoin="round"/>
<path d="M370.606 160.402C370.291 156.619 367.611 156.147 366.666 156.147C366.666 156.147 363.987 155.359 362.411 157.881C362.229 158.172 362.096 158.516 361.995 158.89C362.678 158.453 363.919 157.971 365.09 159.142C366.824 160.876 365.09 161.979 365.878 162.925C366.666 163.871 368.557 163.083 368.242 164.659C368.016 165.787 368.212 167.064 369.373 167.59C369.574 167.123 370.898 163.9 370.606 160.402Z" fill="#263238" stroke="#263238" stroke-width="0.75" stroke-miterlimit="10" stroke-linecap="round" stroke-linejoin="round"/>
<path d="M376.438 161.033C376.438 162.687 375.097 164.028 373.443 164.028C371.789 164.028 370.448 162.687 370.448 161.033C370.448 159.379 371.789 158.038 373.443 158.038C375.097 158.038 376.438 159.379 376.438 161.033Z" fill="#263238" stroke="#263238" stroke-width="0.75" stroke-miterlimit="10" stroke-linecap="round" stroke-linejoin="round"/>
<path d="M350.273 180.27L357.084 191.723L358.167 191.104L351.357 179.496L350.273 180.27Z" fill="white" stroke="#263238" stroke-width="0.75" stroke-miterlimit="10" stroke-linecap="round" stroke-linejoin="round"/>
<path d="M369.661 174.587C369.661 174.587 367.927 173.957 367.612 175.848C367.297 177.739 366.036 186.25 366.036 186.25H353.27L354.531 187.353L368.085 188.929L370.449 177.896C370.449 177.896 371.71 176.163 369.661 174.587Z" fill="white" stroke="#263238" stroke-width="0.75" stroke-miterlimit="10" stroke-linecap="round" stroke-linejoin="round"/>
<path d="M310.737 191.906H307.247V197.876H310.737V191.906Z" fill="white" stroke="#263238" stroke-width="0.75" stroke-miterlimit="10" stroke-linecap="round" stroke-linejoin="round"/>
<path d="M305.982 189.194H304.57V192.018H305.982V189.194Z" fill="white" stroke="#263238" stroke-width="0.75" stroke-miterlimit="10" stroke-linecap="round" stroke-linejoin="round"/>
<path d="M313.237 189.194H311.825V192.018H313.237V189.194Z" fill="white" stroke="#263238" stroke-width="0.75" stroke-miterlimit="10" stroke-linecap="round" stroke-linejoin="round"/>
<path d="M308.889 195.654C307.158 195.654 305.756 194.251 305.756 192.521V187.767C305.756 186.036 307.159 184.634 308.889 184.634C310.619 184.634 312.022 186.037 312.022 187.767V192.521C312.023 194.251 310.62 195.654 308.889 195.654Z" fill="#263238" stroke="#263238" stroke-width="0.75" stroke-miterlimit="10" stroke-linecap="round" stroke-linejoin="round"/>
<path d="M300 220.989L294.667 221.655L296.333 242.989H297.833L298.333 226.822L302 226.53L300 220.989Z" fill="white" stroke="#263238" stroke-width="0.75" stroke-miterlimit="10" stroke-linecap="round" stroke-linejoin="round"/>
<path d="M317 220.989L322.333 221.655L320.667 242.989H319.167L318.667 226.822L315 226.53L317 220.989Z" fill="white" stroke="#263238" stroke-width="0.75" stroke-miterlimit="10" stroke-linecap="round" stroke-linejoin="round"/>
<path d="M297.5 196.53H320L314.75 226.53H302L297.5 196.53Z" fill="#2FC765" stroke="#263238" stroke-width="0.75" stroke-miterlimit="10" stroke-linecap="round" stroke-linejoin="round"/>
<path d="M297.5 196.53L291.375 207.53L289.125 203.28L287.75 203.655L290.625 212.28L298.5 204.655L297.5 196.53Z" fill="#2FC765" stroke="#263238" stroke-width="0.75" stroke-miterlimit="10" stroke-linecap="round" stroke-linejoin="round"/>
<path d="M320 196.53L326.524 196.685L328.889 191.194L330.264 191.569L327.389 200.194L318.5 204.78L320 196.53Z" fill="#2FC765" stroke="#263238" stroke-width="0.75" stroke-miterlimit="10" stroke-linecap="round" stroke-linejoin="round"/>
<path d="M289.125 203.28L290 202.655V201.28L289.73 201.225L289.303 201.758L288.25 199.905L286.959 200.905L287.75 203.655L289.125 203.28Z" fill="white" stroke="#263238" stroke-width="0.75" stroke-miterlimit="10" stroke-linecap="round" stroke-linejoin="round"/>
<path d="M328.889 191.194L328.014 190.569V189.194L328.284 189.139L328.711 189.671L329.764 187.819L331.055 188.819L330.264 191.569L328.889 191.194Z" fill="white" stroke="#263238" stroke-width="0.75" stroke-miterlimit="10" stroke-linecap="round" stroke-linejoin="round"/>
<path d="M309.791 227.655H307.085V238.822H309.791V227.655Z" fill="white" stroke="#263238" stroke-width="0.75" stroke-miterlimit="10" stroke-linecap="round" stroke-linejoin="round"/>
<path d="M323.688 244.155L310.438 241.408V232.488H306.438V241.408L293.188 244.155V245.822L307.438 243.605V245.988H309.438V243.605L323.688 245.822V244.155Z" fill="#263238" stroke="#263238" stroke-width="0.75" stroke-miterlimit="10" stroke-linecap="round" stroke-linejoin="round"/>
<path d="M316.854 228.322H299.979L298 202.655H318.833L316.854 228.322Z" fill="#263238" stroke="#263238" stroke-width="0.75" stroke-miterlimit="10" stroke-linecap="round" stroke-linejoin="round"/>
<path d="M312.333 195.155H305.5V196.488H312.333V195.155Z" fill="white" stroke="#263238" stroke-width="0.75" stroke-miterlimit="10" stroke-linecap="round" stroke-linejoin="round"/>
<path d="M240.57 191.906H237.08V197.876H240.57V191.906Z" fill="white" stroke="#263238" stroke-width="0.75" stroke-miterlimit="10" stroke-linecap="round" stroke-linejoin="round"/>
<path d="M235.815 189.194H234.403V192.018H235.815V189.194Z" fill="white" stroke="#263238" stroke-width="0.75" stroke-miterlimit="10" stroke-linecap="round" stroke-linejoin="round"/>
<path d="M243.071 189.194H241.659V192.018H243.071V189.194Z" fill="white" stroke="#263238" stroke-width="0.75" stroke-miterlimit="10" stroke-linecap="round" stroke-linejoin="round"/>
<path d="M238.723 195.654C236.992 195.654 235.59 194.251 235.59 192.521V187.767C235.59 186.036 236.993 184.634 238.723 184.634C240.453 184.634 241.856 186.037 241.856 187.767V192.521C241.856 194.251 240.453 195.654 238.723 195.654Z" fill="#263238" stroke="#263238" stroke-width="0.75" stroke-miterlimit="10" stroke-linecap="round" stroke-linejoin="round"/>
<path d="M229.833 220.989L224.5 221.655L226.167 242.989H227.667L228.167 226.822L231.833 226.53L229.833 220.989Z" fill="white" stroke="#263238" stroke-width="0.75" stroke-miterlimit="10" stroke-linecap="round" stroke-linejoin="round"/>
<path d="M246.833 220.989L252.167 221.655L250.5 242.989H249L248.5 226.822L244.833 226.53L246.833 220.989Z" fill="white" stroke="#263238" stroke-width="0.75" stroke-miterlimit="10" stroke-linecap="round" stroke-linejoin="round"/>
<path d="M227.333 196.53H249.833L244.583 226.53H231.833L227.333 196.53Z" fill="#2FC765" stroke="#263238" stroke-width="0.75" stroke-miterlimit="10" stroke-linecap="round" stroke-linejoin="round"/>
<path d="M227.333 196.53L221.208 207.53L218.958 203.28L217.583 203.655L220.458 212.28L228.333 204.655L227.333 196.53Z" fill="#2FC765" stroke="#263238" stroke-width="0.75" stroke-miterlimit="10" stroke-linecap="round" stroke-linejoin="round"/>
<path d="M249.833 196.53L255.958 207.53L258.208 203.28L259.583 203.655L256.708 212.28L248.333 204.78L249.833 196.53Z" fill="#2FC765" stroke="#263238" stroke-width="0.75" stroke-miterlimit="10" stroke-linecap="round" stroke-linejoin="round"/>
<path d="M218.958 203.28L219.833 202.655V201.28L219.563 201.225L219.137 201.758L218.083 199.905L216.792 200.905L217.583 203.655L218.958 203.28Z" fill="white" stroke="#263238" stroke-width="0.75" stroke-miterlimit="10" stroke-linecap="round" stroke-linejoin="round"/>
<path d="M258.208 203.28L257.333 202.655V201.28L257.604 201.225L258.03 201.758L259.083 199.905L260.374 200.905L259.583 203.655L258.208 203.28Z" fill="white" stroke="#263238" stroke-width="0.75" stroke-miterlimit="10" stroke-linecap="round" stroke-linejoin="round"/>
<path d="M239.624 227.655H236.918V238.822H239.624V227.655Z" fill="white" stroke="#263238" stroke-width="0.75" stroke-miterlimit="10" stroke-linecap="round" stroke-linejoin="round"/>
<path d="M253.521 244.155L240.271 241.408V232.488H236.271V241.408L223.021 244.155V245.822L237.271 243.605V245.988H239.271V243.605L253.521 245.822V244.155Z" fill="#263238" stroke="#263238" stroke-width="0.75" stroke-miterlimit="10" stroke-linecap="round" stroke-linejoin="round"/>
<path d="M246.688 228.322H229.813L227.833 202.655H248.667L246.688 228.322Z" fill="#263238" stroke="#263238" stroke-width="0.75" stroke-miterlimit="10" stroke-linecap="round" stroke-linejoin="round"/>
<path d="M242.166 195.155H235.333V196.488H242.166V195.155Z" fill="white" stroke="#263238" stroke-width="0.75" stroke-miterlimit="10" stroke-linecap="round" stroke-linejoin="round"/>
<path d="M168.38 161.987V156.883C168.38 155.388 169.366 154.049 170.813 153.674C171.36 153.532 171.988 153.42 172.685 153.376C175.334 153.21 176.494 155.032 176.99 156.357C177.487 157.682 176.99 164.802 176.99 164.802C176.99 164.802 176.162 165.961 174.672 165.299V166.955H168.545L168.38 161.987Z" fill="white" stroke="#263238" stroke-width="0.75" stroke-miterlimit="10" stroke-linecap="round" stroke-linejoin="round"/>
<path d="M176.991 156.357C176.494 155.032 175.335 153.211 172.686 153.376C171.989 153.42 171.361 153.532 170.814 153.674C169.367 154.049 168.381 155.388 168.381 156.883V161.987L168.452 164.13C169.041 164.503 169.733 164.76 170.533 164.803C173.679 164.969 175.004 163.147 175.004 163.147L173.679 162.319L173.017 159.339L174.507 159.008L175.004 161.161H175.832L175.666 158.677H176.659L176.991 156.357Z" fill="#263238" stroke="#263238" stroke-width="0.75" stroke-miterlimit="10" stroke-linecap="round" stroke-linejoin="round"/>
<path d="M175.997 166.624H166.724V168.942H175.997V166.624Z" fill="white" stroke="#263238" stroke-width="0.75" stroke-miterlimit="10" stroke-linecap="round" stroke-linejoin="round"/>
<path d="M158.776 183.845L163.578 177.221L166.062 190.468H178.812L180.634 178.215L188.582 180.533L194.709 164.968L193.053 164.471L187.257 174.572L180.799 168.445H162.75L154.968 182.851L161.922 195.601L163.413 195.105L158.776 183.845Z" fill="#2FC765" stroke="#263238" stroke-width="0.75" stroke-miterlimit="10" stroke-linecap="round" stroke-linejoin="round"/>
<path d="M166.062 190.468L165.565 197.092L160.763 242.959H162.585L172.189 200.735H173.348L183.945 242.297H186.098L179.475 195.767L178.812 190.468H166.062Z" fill="#263238" stroke="#263238" stroke-width="0.75" stroke-miterlimit="10" stroke-linecap="round" stroke-linejoin="round"/>
<path d="M193.053 164.471L195.371 158.179L196.199 158.344L195.868 160L197.855 160.993L197.027 163.974H196.033L194.709 164.968L193.053 164.471Z" fill="white" stroke="#263238" stroke-width="0.75" stroke-miterlimit="10" stroke-linecap="round" stroke-linejoin="round"/>
<path d="M163.413 195.105L165.075 198.766L163.584 199.594L161.922 195.601L163.413 195.105Z" fill="white" stroke="#263238" stroke-width="0.75" stroke-miterlimit="10" stroke-linecap="round" stroke-linejoin="round"/>
<path d="M186.098 242.297L189.936 244.979H184.104L183.945 242.297H186.098Z" fill="white" stroke="#263238" stroke-width="0.75" stroke-miterlimit="10" stroke-linecap="round" stroke-linejoin="round"/>
<path d="M160.674 242.297L156.837 244.979H162.668L162.827 242.297H160.674Z" fill="white" stroke="#263238" stroke-width="0.75" stroke-miterlimit="10" stroke-linecap="round" stroke-linejoin="round"/>
<path d="M348.606 363.038H280.613C279.716 363.038 278.988 362.311 278.988 361.413V303.609C278.988 302.712 279.715 301.984 280.613 301.984H348.606V363.038Z" fill="white" stroke="#263238" stroke-miterlimit="10" stroke-linecap="round" stroke-linejoin="round"/>
<path d="M350.95 301.985H280.821V363.039H350.95V301.985Z" fill="#263238" stroke="#263238" stroke-miterlimit="10" stroke-linecap="round" stroke-linejoin="round"/>
<path d="M347.12 306.819H286.223V358.204H347.12V306.819Z" fill="white" stroke="#263238" stroke-miterlimit="10" stroke-linecap="round" stroke-linejoin="round"/>
<path d="M290.858 354.293H308.276V310.73H290.858V354.293Z" fill="white" stroke="#263238" stroke-miterlimit="10" stroke-linecap="round" stroke-linejoin="round"/>
<path d="M290.858 354.292H342.484V314.124H290.858V354.292Z" fill="white" stroke="#263238" stroke-miterlimit="10" stroke-linecap="round" stroke-linejoin="round"/>
<path d="M293.543 352.204H339.799V316.214H293.543V352.204Z" fill="#2FC765" stroke="#263238" stroke-miterlimit="10" stroke-linecap="round" stroke-linejoin="round"/>
<path d="M295.561 327.965H304.179" stroke="#263238" stroke-miterlimit="10" stroke-linecap="round" stroke-linejoin="round"/>
<path d="M295.561 330.576H304.179" stroke="#263238" stroke-miterlimit="10" stroke-linecap="round" stroke-linejoin="round"/>
<path d="M295.561 333.188H304.179" stroke="#263238" stroke-miterlimit="10" stroke-linecap="round" stroke-linejoin="round"/>
<path d="M295.561 337.626H333.426" stroke="#263238" stroke-miterlimit="10" stroke-linecap="round" stroke-linejoin="round"/>
<path d="M295.561 341.021H333.426" stroke="#263238" stroke-miterlimit="10" stroke-linecap="round" stroke-linejoin="round"/>
<path d="M295.561 344.417H333.426" stroke="#263238" stroke-miterlimit="10" stroke-linecap="round" stroke-linejoin="round"/>
<path d="M280.821 363.039L321.681 376.572H393.346L350.95 363.039H280.821Z" fill="white" stroke="#263238" stroke-miterlimit="10" stroke-linecap="round" stroke-linejoin="round"/>
<path d="M331.849 368.254L325.942 366.361L323.04 366.333L328.931 368.232L331.849 368.254Z" fill="white" stroke="#263238" stroke-width="0.25" stroke-miterlimit="10" stroke-linecap="round" stroke-linejoin="round"/>
<path d="M337.624 368.297L331.685 366.417L328.824 366.389L334.747 368.276L337.624 368.297Z" fill="white" stroke="#263238" stroke-width="0.25" stroke-miterlimit="10" stroke-linecap="round" stroke-linejoin="round"/>
<path d="M357.868 370.295L360.639 370.309L354.466 368.42L351.707 368.399L357.868 370.295Z" fill="white" stroke="#263238" stroke-width="0.25" stroke-miterlimit="10" stroke-linecap="round" stroke-linejoin="round"/>
<path d="M328.931 368.233L323.04 366.334L320.117 366.306L325.992 368.212L328.931 368.233Z" fill="white" stroke="#263238" stroke-width="0.25" stroke-miterlimit="10" stroke-linecap="round" stroke-linejoin="round"/>
<path d="M323.032 368.19L317.173 366.278L314.209 366.249L320.05 368.168L323.032 368.19Z" fill="white" stroke="#263238" stroke-width="0.25" stroke-miterlimit="10" stroke-linecap="round" stroke-linejoin="round"/>
<path d="M348.93 368.38L342.935 366.525L340.152 366.498L346.133 368.359L348.93 368.38Z" fill="white" stroke="#263238" stroke-width="0.25" stroke-miterlimit="10" stroke-linecap="round" stroke-linejoin="round"/>
<path d="M351.707 368.399L345.699 366.55L342.935 366.524L348.93 368.379L351.707 368.399Z" fill="white" stroke="#263238" stroke-width="0.25" stroke-miterlimit="10" stroke-linecap="round" stroke-linejoin="round"/>
<path d="M320.05 368.168L314.209 366.249L311.223 366.221L317.046 368.146L320.05 368.168Z" fill="white" stroke="#263238" stroke-width="0.25" stroke-miterlimit="10" stroke-linecap="round" stroke-linejoin="round"/>
<path d="M340.48 368.318L334.527 366.444L331.685 366.417L337.624 368.297L340.48 368.318Z" fill="white" stroke="#263238" stroke-width="0.25" stroke-miterlimit="10" stroke-linecap="round" stroke-linejoin="round"/>
<path d="M354.466 368.42L348.444 366.577L345.699 366.55L351.707 368.399L354.466 368.42Z" fill="white" stroke="#263238" stroke-width="0.25" stroke-miterlimit="10" stroke-linecap="round" stroke-linejoin="round"/>
<path d="M346.133 368.359L340.152 366.498L337.349 366.471L343.317 368.339L346.133 368.359Z" fill="white" stroke="#263238" stroke-width="0.25" stroke-miterlimit="10" stroke-linecap="round" stroke-linejoin="round"/>
<path d="M343.317 368.338L337.349 366.47L334.527 366.443L340.48 368.317L343.317 368.338Z" fill="white" stroke="#263238" stroke-width="0.25" stroke-miterlimit="10" stroke-linecap="round" stroke-linejoin="round"/>
<path d="M334.747 368.275L328.824 366.388L325.942 366.361L331.849 368.254L334.747 368.275Z" fill="white" stroke="#263238" stroke-width="0.25" stroke-miterlimit="10" stroke-linecap="round" stroke-linejoin="round"/>
<path d="M314.021 368.124L310.974 368.102L316.915 370.092L319.98 370.107L314.021 368.124Z" fill="white" stroke="#263238" stroke-width="0.25" stroke-miterlimit="10" stroke-linecap="round" stroke-linejoin="round"/>
<path d="M308.215 366.192L305.186 366.163L310.974 368.102L314.021 368.124L308.215 366.192Z" fill="white" stroke="#263238" stroke-width="0.25" stroke-miterlimit="10" stroke-linecap="round" stroke-linejoin="round"/>
<path d="M317.046 368.145L311.223 366.22L308.215 366.191L314.021 368.123L317.046 368.145Z" fill="white" stroke="#263238" stroke-width="0.25" stroke-miterlimit="10" stroke-linecap="round" stroke-linejoin="round"/>
<path d="M323.015 372.134L329.28 374.233H332.382L326.098 372.142L323.015 372.134Z" fill="white" stroke="#263238" stroke-width="0.25" stroke-miterlimit="10" stroke-linecap="round" stroke-linejoin="round"/>
<path d="M319.98 370.106L316.915 370.091L323.015 372.134L326.098 372.142L319.98 370.106Z" fill="white" stroke="#263238" stroke-width="0.25" stroke-miterlimit="10" stroke-linecap="round" stroke-linejoin="round"/>
<path d="M326.098 372.143L332.382 374.234H335.461L329.159 372.151L326.098 372.143Z" fill="white" stroke="#263238" stroke-width="0.25" stroke-miterlimit="10" stroke-linecap="round" stroke-linejoin="round"/>
<path d="M325.992 368.211L320.117 366.305L317.173 366.277L323.032 368.189L325.992 368.211Z" fill="white" stroke="#263238" stroke-width="0.25" stroke-miterlimit="10" stroke-linecap="round" stroke-linejoin="round"/>
<path d="M332.02 370.166L325.992 368.211L323.032 368.189L329.043 370.151L332.02 370.166Z" fill="white" stroke="#263238" stroke-width="0.25" stroke-miterlimit="10" stroke-linecap="round" stroke-linejoin="round"/>
<path d="M329.043 370.151L323.032 368.189L320.05 368.167L326.044 370.136L329.043 370.151Z" fill="white" stroke="#263238" stroke-width="0.25" stroke-miterlimit="10" stroke-linecap="round" stroke-linejoin="round"/>
<path d="M334.975 370.181L328.931 368.232L325.992 368.211L332.02 370.166L334.975 370.181Z" fill="white" stroke="#263238" stroke-width="0.25" stroke-miterlimit="10" stroke-linecap="round" stroke-linejoin="round"/>
<path d="M317.046 368.146L314.021 368.124L319.98 370.107L323.023 370.122L317.046 368.146Z" fill="white" stroke="#263238" stroke-width="0.25" stroke-miterlimit="10" stroke-linecap="round" stroke-linejoin="round"/>
<path d="M364.185 372.239L366.969 372.246L360.639 370.309L357.868 370.295L364.185 372.239Z" fill="white" stroke="#263238" stroke-width="0.25" stroke-miterlimit="10" stroke-linecap="round" stroke-linejoin="round"/>
<path d="M326.044 370.137L320.05 368.168L317.046 368.146L323.023 370.122L326.044 370.137Z" fill="white" stroke="#263238" stroke-width="0.25" stroke-miterlimit="10" stroke-linecap="round" stroke-linejoin="round"/>
<path d="M319.98 370.106L326.098 372.142L329.159 372.15L323.023 370.121L319.98 370.106Z" fill="white" stroke="#263238" stroke-width="0.25" stroke-miterlimit="10" stroke-linecap="round" stroke-linejoin="round"/>
<path d="M352.266 370.267L346.133 368.358L343.317 368.338L349.436 370.253L352.266 370.267Z" fill="white" stroke="#263238" stroke-width="0.25" stroke-miterlimit="10" stroke-linecap="round" stroke-linejoin="round"/>
<path d="M349.436 370.253L343.317 368.338L340.48 368.317L346.585 370.239L349.436 370.253Z" fill="white" stroke="#263238" stroke-width="0.25" stroke-miterlimit="10" stroke-linecap="round" stroke-linejoin="round"/>
<path d="M357.868 370.295L351.707 368.399L348.93 368.379L355.077 370.281L357.868 370.295Z" fill="white" stroke="#263238" stroke-width="0.25" stroke-miterlimit="10" stroke-linecap="round" stroke-linejoin="round"/>
<path d="M340.822 370.21L334.747 368.275L331.849 368.254L337.909 370.195L340.822 370.21Z" fill="white" stroke="#263238" stroke-width="0.25" stroke-miterlimit="10" stroke-linecap="round" stroke-linejoin="round"/>
<path d="M346.585 370.239L340.48 368.317L337.624 368.296L343.714 370.224L346.585 370.239Z" fill="white" stroke="#263238" stroke-width="0.25" stroke-miterlimit="10" stroke-linecap="round" stroke-linejoin="round"/>
<path d="M343.714 370.224L337.624 368.296L334.747 368.275L340.822 370.21L343.714 370.224Z" fill="white" stroke="#263238" stroke-width="0.25" stroke-miterlimit="10" stroke-linecap="round" stroke-linejoin="round"/>
<path d="M337.909 370.195L331.849 368.254L328.931 368.232L334.975 370.181L337.909 370.195Z" fill="white" stroke="#263238" stroke-width="0.25" stroke-miterlimit="10" stroke-linecap="round" stroke-linejoin="round"/>
<path d="M346.585 370.239L352.848 372.21L355.713 372.217L349.436 370.253L346.585 370.239Z" fill="white" stroke="#263238" stroke-width="0.25" stroke-miterlimit="10" stroke-linecap="round" stroke-linejoin="round"/>
<path d="M349.436 370.253L355.713 372.217L358.557 372.225L352.266 370.267L349.436 370.253Z" fill="white" stroke="#263238" stroke-width="0.25" stroke-miterlimit="10" stroke-linecap="round" stroke-linejoin="round"/>
<path d="M323.023 370.122L329.159 372.151L332.197 372.159L326.044 370.137L323.023 370.122Z" fill="white" stroke="#263238" stroke-width="0.25" stroke-miterlimit="10" stroke-linecap="round" stroke-linejoin="round"/>
<path d="M352.266 370.268L358.557 372.226L361.381 372.233L355.077 370.282L352.266 370.268Z" fill="white" stroke="#263238" stroke-width="0.25" stroke-miterlimit="10" stroke-linecap="round" stroke-linejoin="round"/>
<path d="M340.822 370.21L347.055 372.195L349.962 372.203L343.714 370.224L340.822 370.21Z" fill="white" stroke="#263238" stroke-width="0.25" stroke-miterlimit="10" stroke-linecap="round" stroke-linejoin="round"/>
<path d="M355.077 370.281L361.381 372.232L364.185 372.239L357.868 370.295L355.077 370.281Z" fill="white" stroke="#263238" stroke-width="0.25" stroke-miterlimit="10" stroke-linecap="round" stroke-linejoin="round"/>
<path d="M343.714 370.225L349.962 372.204L352.848 372.211L346.585 370.24L343.714 370.225Z" fill="white" stroke="#263238" stroke-width="0.25" stroke-miterlimit="10" stroke-linecap="round" stroke-linejoin="round"/>
<path d="M329.043 370.151L335.213 372.165L338.206 372.173L332.02 370.166L329.043 370.151Z" fill="white" stroke="#263238" stroke-width="0.25" stroke-miterlimit="10" stroke-linecap="round" stroke-linejoin="round"/>
<path d="M326.044 370.137L332.197 372.159L335.213 372.166L329.043 370.152L326.044 370.137Z" fill="white" stroke="#263238" stroke-width="0.25" stroke-miterlimit="10" stroke-linecap="round" stroke-linejoin="round"/>
<path d="M337.909 370.195L344.127 372.188L347.055 372.195L340.822 370.21L337.909 370.195Z" fill="white" stroke="#263238" stroke-width="0.25" stroke-miterlimit="10" stroke-linecap="round" stroke-linejoin="round"/>
<path d="M334.975 370.182L341.178 372.181L344.127 372.189L337.909 370.196L334.975 370.182Z" fill="white" stroke="#263238" stroke-width="0.25" stroke-miterlimit="10" stroke-linecap="round" stroke-linejoin="round"/>
<path d="M332.02 370.167L338.206 372.174L341.178 372.181L334.975 370.182L332.02 370.167Z" fill="white" stroke="#263238" stroke-width="0.25" stroke-miterlimit="10" stroke-linecap="round" stroke-linejoin="round"/>
<path d="M355.077 370.281L348.93 368.379L346.133 368.358L352.266 370.267L355.077 370.281Z" fill="white" stroke="#263238" stroke-width="0.25" stroke-miterlimit="10" stroke-linecap="round" stroke-linejoin="round"/>
<path d="M308.215 366.192L302.025 364.132L299.016 364.096L305.186 366.163L308.215 366.192Z" fill="white" stroke="#263238" stroke-width="0.25" stroke-miterlimit="10" stroke-linecap="round" stroke-linejoin="round"/>
<path d="M305.186 366.163L302.371 366.136L308.141 368.081L310.974 368.102L305.186 366.163Z" fill="white" stroke="#263238" stroke-width="0.25" stroke-miterlimit="10" stroke-linecap="round" stroke-linejoin="round"/>
<path d="M299.016 364.095L296.22 364.062L302.371 366.135L305.186 366.162L299.016 364.095Z" fill="white" stroke="#263238" stroke-width="0.25" stroke-miterlimit="10" stroke-linecap="round" stroke-linejoin="round"/>
<path d="M310.974 368.102L308.141 368.081L314.064 370.077L316.915 370.092L310.974 368.102Z" fill="white" stroke="#263238" stroke-width="0.25" stroke-miterlimit="10" stroke-linecap="round" stroke-linejoin="round"/>
<path d="M316.915 370.092L314.064 370.077L320.147 372.128L323.015 372.135L316.915 370.092Z" fill="white" stroke="#263238" stroke-width="0.25" stroke-miterlimit="10" stroke-linecap="round" stroke-linejoin="round"/>
<path d="M323.015 372.134L320.147 372.127L326.396 374.233H329.28L323.015 372.134Z" fill="white" stroke="#263238" stroke-width="0.25" stroke-miterlimit="10" stroke-linecap="round" stroke-linejoin="round"/>
<path d="M357.205 368.44L363.391 370.323L365.809 370.335L359.612 368.457L357.205 368.44Z" fill="white" stroke="#263238" stroke-width="0.25" stroke-miterlimit="10" stroke-linecap="round" stroke-linejoin="round"/>
<path d="M369.733 372.253L372.162 372.259L365.809 370.335L363.391 370.323L369.733 372.253Z" fill="white" stroke="#263238" stroke-width="0.25" stroke-miterlimit="10" stroke-linecap="round" stroke-linejoin="round"/>
<path d="M376.237 374.233H378.677L372.162 372.259L369.733 372.253L376.237 374.233Z" fill="white" stroke="#263238" stroke-width="0.25" stroke-miterlimit="10" stroke-linecap="round" stroke-linejoin="round"/>
<path d="M331.685 366.416L325.35 364.41L322.505 364.376L328.824 366.388L331.685 366.416Z" fill="white" stroke="#263238" stroke-width="0.25" stroke-miterlimit="10" stroke-linecap="round" stroke-linejoin="round"/>
<path d="M357.205 368.441L359.612 368.458L353.566 366.627L351.17 366.604L357.205 368.441Z" fill="white" stroke="#263238" stroke-width="0.25" stroke-miterlimit="10" stroke-linecap="round" stroke-linejoin="round"/>
<path d="M366.969 372.247L369.733 372.254L363.391 370.324L360.639 370.31L366.969 372.247Z" fill="white" stroke="#263238" stroke-width="0.25" stroke-miterlimit="10" stroke-linecap="round" stroke-linejoin="round"/>
<path d="M311.223 366.22L305.013 364.167L302.025 364.131L308.215 366.191L311.223 366.22Z" fill="white" stroke="#263238" stroke-width="0.25" stroke-miterlimit="10" stroke-linecap="round" stroke-linejoin="round"/>
<path d="M348.444 366.578L354.466 368.421L357.205 368.441L351.17 366.604L348.444 366.578Z" fill="white" stroke="#263238" stroke-width="0.25" stroke-miterlimit="10" stroke-linecap="round" stroke-linejoin="round"/>
<path d="M353.566 366.627L347.111 364.671L344.727 364.643L351.17 366.604L353.566 366.627Z" fill="white" stroke="#263238" stroke-width="0.25" stroke-miterlimit="10" stroke-linecap="round" stroke-linejoin="round"/>
<path d="M351.17 366.603L344.727 364.642L342.015 364.609L348.444 366.577L351.17 366.603Z" fill="white" stroke="#263238" stroke-width="0.25" stroke-miterlimit="10" stroke-linecap="round" stroke-linejoin="round"/>
<path d="M358.557 372.226L365.011 374.234H367.848L361.381 372.233L358.557 372.226Z" fill="white" stroke="#263238" stroke-width="0.25" stroke-miterlimit="10" stroke-linecap="round" stroke-linejoin="round"/>
<path d="M373.461 374.234H376.237L369.733 372.254L366.969 372.247L373.461 374.234Z" fill="white" stroke="#263238" stroke-width="0.25" stroke-miterlimit="10" stroke-linecap="round" stroke-linejoin="round"/>
<path d="M348.444 366.578L342.015 364.61L339.284 364.578L345.699 366.551L348.444 366.578Z" fill="white" stroke="#263238" stroke-width="0.25" stroke-miterlimit="10" stroke-linecap="round" stroke-linejoin="round"/>
<path d="M364.185 372.239L370.665 374.233H373.461L366.969 372.246L364.185 372.239Z" fill="white" stroke="#263238" stroke-width="0.25" stroke-miterlimit="10" stroke-linecap="round" stroke-linejoin="round"/>
<path d="M361.381 372.232L367.848 374.233H370.665L364.185 372.239L361.381 372.232Z" fill="white" stroke="#263238" stroke-width="0.25" stroke-miterlimit="10" stroke-linecap="round" stroke-linejoin="round"/>
<path d="M360.639 370.309L363.391 370.323L357.205 368.44L354.466 368.42L360.639 370.309Z" fill="white" stroke="#263238" stroke-width="0.25" stroke-miterlimit="10" stroke-linecap="round" stroke-linejoin="round"/>
<path d="M323.04 366.333L316.756 364.307L313.851 364.272L320.117 366.305L323.04 366.333Z" fill="white" stroke="#263238" stroke-width="0.25" stroke-miterlimit="10" stroke-linecap="round" stroke-linejoin="round"/>
<path d="M345.699 366.55L339.284 364.577L336.535 364.544L342.935 366.524L345.699 366.55Z" fill="white" stroke="#263238" stroke-width="0.25" stroke-miterlimit="10" stroke-linecap="round" stroke-linejoin="round"/>
<path d="M320.117 366.305L313.851 364.272L310.926 364.237L317.173 366.277L320.117 366.305Z" fill="white" stroke="#263238" stroke-width="0.25" stroke-miterlimit="10" stroke-linecap="round" stroke-linejoin="round"/>
<path d="M328.824 366.388L322.505 364.376L319.64 364.342L325.942 366.361L328.824 366.388Z" fill="white" stroke="#263238" stroke-width="0.25" stroke-miterlimit="10" stroke-linecap="round" stroke-linejoin="round"/>
<path d="M317.173 366.278L310.926 364.238L307.98 364.203L314.209 366.249L317.173 366.278Z" fill="white" stroke="#263238" stroke-width="0.25" stroke-miterlimit="10" stroke-linecap="round" stroke-linejoin="round"/>
<path d="M314.209 366.248L307.98 364.202L305.013 364.167L311.223 366.22L314.209 366.248Z" fill="white" stroke="#263238" stroke-width="0.25" stroke-miterlimit="10" stroke-linecap="round" stroke-linejoin="round"/>
<path d="M325.942 366.362L319.64 364.343L316.756 364.308L323.04 366.334L325.942 366.362Z" fill="white" stroke="#263238" stroke-width="0.25" stroke-miterlimit="10" stroke-linecap="round" stroke-linejoin="round"/>
<path d="M342.935 366.525L336.535 364.545L333.768 364.512L340.152 366.498L342.935 366.525Z" fill="white" stroke="#263238" stroke-width="0.25" stroke-miterlimit="10" stroke-linecap="round" stroke-linejoin="round"/>
<path d="M340.152 366.498L333.768 364.512L330.981 364.478L337.349 366.471L340.152 366.498Z" fill="white" stroke="#263238" stroke-width="0.25" stroke-miterlimit="10" stroke-linecap="round" stroke-linejoin="round"/>
<path d="M334.527 366.444L328.175 364.445L325.35 364.411L331.685 366.417L334.527 366.444Z" fill="white" stroke="#263238" stroke-width="0.25" stroke-miterlimit="10" stroke-linecap="round" stroke-linejoin="round"/>
<path d="M358.557 372.225L355.713 372.217L352.848 372.21L349.962 372.203L347.055 372.195L344.127 372.188L341.178 372.18L338.206 372.173L335.213 372.165L332.197 372.158L329.159 372.15L335.461 374.233H338.516H341.548H344.558H347.545H350.51H353.453H356.375H359.275H362.153H365.011L358.557 372.225Z" fill="white" stroke="#263238" stroke-width="0.25" stroke-miterlimit="10" stroke-linecap="round" stroke-linejoin="round"/>
<path d="M337.349 366.47L330.981 364.477L328.175 364.444L334.527 366.443L337.349 366.47Z" fill="white" stroke="#263238" stroke-width="0.25" stroke-miterlimit="10" stroke-linecap="round" stroke-linejoin="round"/>
<path d="M280.821 363.039V365.077L321.664 379.182L321.681 376.572L280.821 363.039Z" fill="white" stroke="#263238" stroke-miterlimit="10" stroke-linecap="round" stroke-linejoin="round"/>
<path d="M393.346 376.571H321.681V379.181H393.346V376.571Z" fill="#263238" stroke="#263238" stroke-miterlimit="10" stroke-linecap="round" stroke-linejoin="round"/>
<path d="M301.907 279.409L317.571 303.304L333.236 279.409H326.68V249.953H308.463V279.409H301.907Z" fill="#2FC765" stroke="#263238" stroke-miterlimit="10" stroke-linecap="round" stroke-linejoin="round"/>
<path d="M160.26 363.038H228.253C229.15 363.038 229.878 362.311 229.878 361.413V303.609C229.878 302.712 229.151 301.984 228.253 301.984H160.26V363.038Z" fill="white" stroke="#263238" stroke-miterlimit="10" stroke-linecap="round" stroke-linejoin="round"/>
<path d="M157.916 363.038H228.045V301.984H157.916V363.038Z" fill="#263238" stroke="#263238" stroke-miterlimit="10" stroke-linecap="round" stroke-linejoin="round"/>
<path d="M161.747 358.204H222.644V306.819H161.747V358.204Z" fill="white" stroke="#263238" stroke-miterlimit="10" stroke-linecap="round" stroke-linejoin="round"/>
<path d="M166.383 354.293H183.801V310.73H166.383V354.293Z" fill="white" stroke="#263238" stroke-miterlimit="10" stroke-linecap="round" stroke-linejoin="round"/>
<path d="M166.383 354.292H218.009V314.124H166.383V354.292Z" fill="white" stroke="#263238" stroke-miterlimit="10" stroke-linecap="round" stroke-linejoin="round"/>
<path d="M169.068 352.204H215.324V316.214H169.068V352.204Z" fill="#2FC765" stroke="#263238" stroke-miterlimit="10" stroke-linecap="round" stroke-linejoin="round"/>
<path d="M171.086 327.965H179.703" stroke="#263238" stroke-miterlimit="10" stroke-linecap="round" stroke-linejoin="round"/>
<path d="M171.086 330.576H179.703" stroke="#263238" stroke-miterlimit="10" stroke-linecap="round" stroke-linejoin="round"/>
<path d="M171.086 333.187H179.703" stroke="#263238" stroke-miterlimit="10" stroke-linecap="round" stroke-linejoin="round"/>
<path d="M171.086 337.626H208.95" stroke="#263238" stroke-miterlimit="10" stroke-linecap="round" stroke-linejoin="round"/>
<path d="M171.086 341.021H208.95" stroke="#263238" stroke-miterlimit="10" stroke-linecap="round" stroke-linejoin="round"/>
<path d="M171.086 344.416H208.95" stroke="#263238" stroke-miterlimit="10" stroke-linecap="round" stroke-linejoin="round"/>
<path d="M228.045 363.038L187.186 376.571H115.521L157.916 363.038H228.045Z" fill="white" stroke="#263238" stroke-miterlimit="10" stroke-linecap="round" stroke-linejoin="round"/>
<path d="M177.017 368.254L182.924 366.361L185.827 366.333L179.935 368.232L177.017 368.254Z" fill="white" stroke="#263238" stroke-width="0.25" stroke-miterlimit="10" stroke-linecap="round" stroke-linejoin="round"/>
<path d="M171.243 368.296L177.181 366.416L180.043 366.388L174.12 368.275L171.243 368.296Z" fill="white" stroke="#263238" stroke-width="0.25" stroke-miterlimit="10" stroke-linecap="round" stroke-linejoin="round"/>
<path d="M150.999 370.295L148.228 370.309L154.401 368.42L157.159 368.399L150.999 370.295Z" fill="white" stroke="#263238" stroke-width="0.25" stroke-miterlimit="10" stroke-linecap="round" stroke-linejoin="round"/>
<path d="M179.935 368.232L185.827 366.333L188.749 366.305L182.874 368.211L179.935 368.232Z" fill="white" stroke="#263238" stroke-width="0.25" stroke-miterlimit="10" stroke-linecap="round" stroke-linejoin="round"/>
<path d="M185.835 368.189L191.693 366.277L194.658 366.248L188.817 368.167L185.835 368.189Z" fill="white" stroke="#263238" stroke-width="0.25" stroke-miterlimit="10" stroke-linecap="round" stroke-linejoin="round"/>
<path d="M159.936 368.379L165.932 366.524L168.715 366.497L162.733 368.358L159.936 368.379Z" fill="white" stroke="#263238" stroke-width="0.25" stroke-miterlimit="10" stroke-linecap="round" stroke-linejoin="round"/>
<path d="M157.159 368.399L163.168 366.55L165.932 366.524L159.936 368.379L157.159 368.399Z" fill="white" stroke="#263238" stroke-width="0.25" stroke-miterlimit="10" stroke-linecap="round" stroke-linejoin="round"/>
<path d="M188.817 368.167L194.658 366.248L197.644 366.22L191.82 368.145L188.817 368.167Z" fill="white" stroke="#263238" stroke-width="0.25" stroke-miterlimit="10" stroke-linecap="round" stroke-linejoin="round"/>
<path d="M168.386 368.317L174.339 366.443L177.181 366.416L171.243 368.296L168.386 368.317Z" fill="white" stroke="#263238" stroke-width="0.25" stroke-miterlimit="10" stroke-linecap="round" stroke-linejoin="round"/>
<path d="M154.401 368.42L160.423 366.577L163.168 366.55L157.159 368.399L154.401 368.42Z" fill="white" stroke="#263238" stroke-width="0.25" stroke-miterlimit="10" stroke-linecap="round" stroke-linejoin="round"/>
<path d="M162.733 368.358L168.715 366.497L171.517 366.47L165.55 368.338L162.733 368.358Z" fill="white" stroke="#263238" stroke-width="0.25" stroke-miterlimit="10" stroke-linecap="round" stroke-linejoin="round"/>
<path d="M165.55 368.338L171.517 366.47L174.339 366.443L168.386 368.317L165.55 368.338Z" fill="white" stroke="#263238" stroke-width="0.25" stroke-miterlimit="10" stroke-linecap="round" stroke-linejoin="round"/>
<path d="M174.12 368.275L180.043 366.388L182.924 366.361L177.017 368.254L174.12 368.275Z" fill="white" stroke="#263238" stroke-width="0.25" stroke-miterlimit="10" stroke-linecap="round" stroke-linejoin="round"/>
<path d="M194.845 368.123L197.893 368.101L191.952 370.091L188.886 370.106L194.845 368.123Z" fill="white" stroke="#263238" stroke-width="0.25" stroke-miterlimit="10" stroke-linecap="round" stroke-linejoin="round"/>
<path d="M200.651 366.191L203.68 366.162L197.893 368.101L194.845 368.123L200.651 366.191Z" fill="white" stroke="#263238" stroke-width="0.25" stroke-miterlimit="10" stroke-linecap="round" stroke-linejoin="round"/>
<path d="M191.82 368.145L197.644 366.22L200.651 366.191L194.845 368.123L191.82 368.145Z" fill="white" stroke="#263238" stroke-width="0.25" stroke-miterlimit="10" stroke-linecap="round" stroke-linejoin="round"/>
<path d="M185.852 372.134L179.586 374.233H176.484L182.768 372.142L185.852 372.134Z" fill="white" stroke="#263238" stroke-width="0.25" stroke-miterlimit="10" stroke-linecap="round" stroke-linejoin="round"/>
<path d="M188.886 370.106L191.952 370.091L185.852 372.134L182.768 372.142L188.886 370.106Z" fill="white" stroke="#263238" stroke-width="0.25" stroke-miterlimit="10" stroke-linecap="round" stroke-linejoin="round"/>
<path d="M182.768 372.142L176.484 374.233H173.406L179.707 372.15L182.768 372.142Z" fill="white" stroke="#263238" stroke-width="0.25" stroke-miterlimit="10" stroke-linecap="round" stroke-linejoin="round"/>
<path d="M182.874 368.211L188.749 366.305L191.693 366.277L185.835 368.189L182.874 368.211Z" fill="white" stroke="#263238" stroke-width="0.25" stroke-miterlimit="10" stroke-linecap="round" stroke-linejoin="round"/>
<path d="M176.847 370.166L182.874 368.211L185.835 368.189L179.824 370.151L176.847 370.166Z" fill="white" stroke="#263238" stroke-width="0.25" stroke-miterlimit="10" stroke-linecap="round" stroke-linejoin="round"/>
<path d="M179.824 370.151L185.835 368.189L188.817 368.167L182.822 370.136L179.824 370.151Z" fill="white" stroke="#263238" stroke-width="0.25" stroke-miterlimit="10" stroke-linecap="round" stroke-linejoin="round"/>
<path d="M173.891 370.181L179.935 368.232L182.874 368.211L176.847 370.166L173.891 370.181Z" fill="white" stroke="#263238" stroke-width="0.25" stroke-miterlimit="10" stroke-linecap="round" stroke-linejoin="round"/>
<path d="M191.82 368.145L194.845 368.123L188.886 370.106L185.843 370.121L191.82 368.145Z" fill="white" stroke="#263238" stroke-width="0.25" stroke-miterlimit="10" stroke-linecap="round" stroke-linejoin="round"/>
<path d="M144.682 372.239L141.898 372.246L148.228 370.309L150.999 370.295L144.682 372.239Z" fill="white" stroke="#263238" stroke-width="0.25" stroke-miterlimit="10" stroke-linecap="round" stroke-linejoin="round"/>
<path d="M182.822 370.136L188.817 368.167L191.82 368.145L185.843 370.121L182.822 370.136Z" fill="white" stroke="#263238" stroke-width="0.25" stroke-miterlimit="10" stroke-linecap="round" stroke-linejoin="round"/>
<path d="M188.886 370.106L182.768 372.142L179.707 372.15L185.843 370.121L188.886 370.106Z" fill="white" stroke="#263238" stroke-width="0.25" stroke-miterlimit="10" stroke-linecap="round" stroke-linejoin="round"/>
<path d="M156.6 370.267L162.733 368.358L165.55 368.338L159.431 370.253L156.6 370.267Z" fill="white" stroke="#263238" stroke-width="0.25" stroke-miterlimit="10" stroke-linecap="round" stroke-linejoin="round"/>
<path d="M159.431 370.253L165.55 368.338L168.386 368.317L162.281 370.239L159.431 370.253Z" fill="white" stroke="#263238" stroke-width="0.25" stroke-miterlimit="10" stroke-linecap="round" stroke-linejoin="round"/>
<path d="M150.999 370.295L157.159 368.399L159.936 368.379L153.789 370.281L150.999 370.295Z" fill="white" stroke="#263238" stroke-width="0.25" stroke-miterlimit="10" stroke-linecap="round" stroke-linejoin="round"/>
<path d="M168.045 370.21L174.12 368.275L177.017 368.254L170.957 370.195L168.045 370.21Z" fill="white" stroke="#263238" stroke-width="0.25" stroke-miterlimit="10" stroke-linecap="round" stroke-linejoin="round"/>
<path d="M162.281 370.239L168.386 368.317L171.243 368.296L165.153 370.224L162.281 370.239Z" fill="white" stroke="#263238" stroke-width="0.25" stroke-miterlimit="10" stroke-linecap="round" stroke-linejoin="round"/>
<path d="M165.153 370.224L171.243 368.296L174.12 368.275L168.045 370.21L165.153 370.224Z" fill="white" stroke="#263238" stroke-width="0.25" stroke-miterlimit="10" stroke-linecap="round" stroke-linejoin="round"/>
<path d="M170.957 370.195L177.017 368.254L179.935 368.232L173.891 370.181L170.957 370.195Z" fill="white" stroke="#263238" stroke-width="0.25" stroke-miterlimit="10" stroke-linecap="round" stroke-linejoin="round"/>
<path d="M162.281 370.239L156.019 372.21L153.154 372.217L159.431 370.253L162.281 370.239Z" fill="white" stroke="#263238" stroke-width="0.25" stroke-miterlimit="10" stroke-linecap="round" stroke-linejoin="round"/>
<path d="M159.431 370.253L153.154 372.217L150.309 372.225L156.6 370.267L159.431 370.253Z" fill="white" stroke="#263238" stroke-width="0.25" stroke-miterlimit="10" stroke-linecap="round" stroke-linejoin="round"/>
<path d="M185.843 370.121L179.707 372.15L176.669 372.158L182.822 370.136L185.843 370.121Z" fill="white" stroke="#263238" stroke-width="0.25" stroke-miterlimit="10" stroke-linecap="round" stroke-linejoin="round"/>
<path d="M156.6 370.267L150.309 372.225L147.485 372.232L153.789 370.281L156.6 370.267Z" fill="white" stroke="#263238" stroke-width="0.25" stroke-miterlimit="10" stroke-linecap="round" stroke-linejoin="round"/>
<path d="M168.045 370.21L161.811 372.195L158.904 372.203L165.153 370.224L168.045 370.21Z" fill="white" stroke="#263238" stroke-width="0.25" stroke-miterlimit="10" stroke-linecap="round" stroke-linejoin="round"/>
<path d="M153.789 370.281L147.485 372.232L144.682 372.239L150.999 370.295L153.789 370.281Z" fill="white" stroke="#263238" stroke-width="0.25" stroke-miterlimit="10" stroke-linecap="round" stroke-linejoin="round"/>
<path d="M165.153 370.224L158.904 372.203L156.019 372.21L162.281 370.239L165.153 370.224Z" fill="white" stroke="#263238" stroke-width="0.25" stroke-miterlimit="10" stroke-linecap="round" stroke-linejoin="round"/>
<path d="M179.824 370.151L173.654 372.165L170.66 372.173L176.847 370.166L179.824 370.151Z" fill="white" stroke="#263238" stroke-width="0.25" stroke-miterlimit="10" stroke-linecap="round" stroke-linejoin="round"/>
<path d="M182.822 370.136L176.669 372.158L173.654 372.165L179.824 370.151L182.822 370.136Z" fill="white" stroke="#263238" stroke-width="0.25" stroke-miterlimit="10" stroke-linecap="round" stroke-linejoin="round"/>
<path d="M170.957 370.195L164.739 372.188L161.811 372.195L168.045 370.21L170.957 370.195Z" fill="white" stroke="#263238" stroke-width="0.25" stroke-miterlimit="10" stroke-linecap="round" stroke-linejoin="round"/>
<path d="M173.891 370.181L167.689 372.18L164.739 372.188L170.957 370.195L173.891 370.181Z" fill="white" stroke="#263238" stroke-width="0.25" stroke-miterlimit="10" stroke-linecap="round" stroke-linejoin="round"/>
<path d="M176.847 370.166L170.66 372.173L167.689 372.18L173.891 370.181L176.847 370.166Z" fill="white" stroke="#263238" stroke-width="0.25" stroke-miterlimit="10" stroke-linecap="round" stroke-linejoin="round"/>
<path d="M153.789 370.281L159.936 368.379L162.733 368.358L156.6 370.267L153.789 370.281Z" fill="white" stroke="#263238" stroke-width="0.25" stroke-miterlimit="10" stroke-linecap="round" stroke-linejoin="round"/>
<path d="M200.651 366.191L206.841 364.131L209.85 364.095L203.68 366.162L200.651 366.191Z" fill="white" stroke="#263238" stroke-width="0.25" stroke-miterlimit="10" stroke-linecap="round" stroke-linejoin="round"/>
<path d="M203.68 366.162L206.496 366.135L200.726 368.08L197.893 368.101L203.68 366.162Z" fill="white" stroke="#263238" stroke-width="0.25" stroke-miterlimit="10" stroke-linecap="round" stroke-linejoin="round"/>
<path d="M209.85 364.095L212.647 364.062L206.496 366.135L203.68 366.162L209.85 364.095Z" fill="white" stroke="#263238" stroke-width="0.25" stroke-miterlimit="10" stroke-linecap="round" stroke-linejoin="round"/>
<path d="M197.893 368.101L200.726 368.08L194.802 370.076L191.952 370.091L197.893 368.101Z" fill="white" stroke="#263238" stroke-width="0.25" stroke-miterlimit="10" stroke-linecap="round" stroke-linejoin="round"/>
<path d="M191.952 370.091L194.802 370.076L188.719 372.127L185.852 372.134L191.952 370.091Z" fill="white" stroke="#263238" stroke-width="0.25" stroke-miterlimit="10" stroke-linecap="round" stroke-linejoin="round"/>
<path d="M185.852 372.134L188.719 372.127L182.47 374.233H179.586L185.852 372.134Z" fill="white" stroke="#263238" stroke-width="0.25" stroke-miterlimit="10" stroke-linecap="round" stroke-linejoin="round"/>
<path d="M151.662 368.44L145.476 370.323L143.058 370.335L149.254 368.457L151.662 368.44Z" fill="white" stroke="#263238" stroke-width="0.25" stroke-miterlimit="10" stroke-linecap="round" stroke-linejoin="round"/>
<path d="M139.134 372.253L136.705 372.259L143.058 370.335L145.476 370.323L139.134 372.253Z" fill="white" stroke="#263238" stroke-width="0.25" stroke-miterlimit="10" stroke-linecap="round" stroke-linejoin="round"/>
<path d="M132.629 374.233H130.19L136.705 372.259L139.134 372.253L132.629 374.233Z" fill="white" stroke="#263238" stroke-width="0.25" stroke-miterlimit="10" stroke-linecap="round" stroke-linejoin="round"/>
<path d="M177.181 366.416L183.517 364.41L186.362 364.376L180.043 366.388L177.181 366.416Z" fill="white" stroke="#263238" stroke-width="0.25" stroke-miterlimit="10" stroke-linecap="round" stroke-linejoin="round"/>
<path d="M151.662 368.44L149.254 368.457L155.3 366.626L157.697 366.603L151.662 368.44Z" fill="white" stroke="#263238" stroke-width="0.25" stroke-miterlimit="10" stroke-linecap="round" stroke-linejoin="round"/>
<path d="M141.898 372.246L139.134 372.253L145.476 370.323L148.228 370.309L141.898 372.246Z" fill="white" stroke="#263238" stroke-width="0.25" stroke-miterlimit="10" stroke-linecap="round" stroke-linejoin="round"/>
<path d="M197.644 366.22L203.853 364.167L206.841 364.131L200.651 366.191L197.644 366.22Z" fill="white" stroke="#263238" stroke-width="0.25" stroke-miterlimit="10" stroke-linecap="round" stroke-linejoin="round"/>
<path d="M160.423 366.577L154.401 368.42L151.662 368.44L157.697 366.603L160.423 366.577Z" fill="white" stroke="#263238" stroke-width="0.25" stroke-miterlimit="10" stroke-linecap="round" stroke-linejoin="round"/>
<path d="M155.3 366.626L161.756 364.67L164.14 364.642L157.697 366.603L155.3 366.626Z" fill="white" stroke="#263238" stroke-width="0.25" stroke-miterlimit="10" stroke-linecap="round" stroke-linejoin="round"/>
<path d="M157.697 366.603L164.14 364.642L166.852 364.609L160.423 366.577L157.697 366.603Z" fill="white" stroke="#263238" stroke-width="0.25" stroke-miterlimit="10" stroke-linecap="round" stroke-linejoin="round"/>
<path d="M150.309 372.225L143.855 374.233H141.018L147.485 372.232L150.309 372.225Z" fill="white" stroke="#263238" stroke-width="0.25" stroke-miterlimit="10" stroke-linecap="round" stroke-linejoin="round"/>
<path d="M135.405 374.233H132.629L139.134 372.253L141.898 372.246L135.405 374.233Z" fill="white" stroke="#263238" stroke-width="0.25" stroke-miterlimit="10" stroke-linecap="round" stroke-linejoin="round"/>
<path d="M160.423 366.577L166.852 364.609L169.582 364.577L163.168 366.55L160.423 366.577Z" fill="white" stroke="#263238" stroke-width="0.25" stroke-miterlimit="10" stroke-linecap="round" stroke-linejoin="round"/>
<path d="M144.682 372.239L138.201 374.233H135.405L141.898 372.246L144.682 372.239Z" fill="white" stroke="#263238" stroke-width="0.25" stroke-miterlimit="10" stroke-linecap="round" stroke-linejoin="round"/>
<path d="M147.485 372.232L141.018 374.233H138.201L144.682 372.239L147.485 372.232Z" fill="white" stroke="#263238" stroke-width="0.25" stroke-miterlimit="10" stroke-linecap="round" stroke-linejoin="round"/>
<path d="M148.228 370.309L145.476 370.323L151.662 368.44L154.401 368.42L148.228 370.309Z" fill="white" stroke="#263238" stroke-width="0.25" stroke-miterlimit="10" stroke-linecap="round" stroke-linejoin="round"/>
<path d="M185.827 366.333L192.111 364.307L195.016 364.272L188.749 366.305L185.827 366.333Z" fill="white" stroke="#263238" stroke-width="0.25" stroke-miterlimit="10" stroke-linecap="round" stroke-linejoin="round"/>
<path d="M163.168 366.55L169.582 364.577L172.331 364.544L165.932 366.524L163.168 366.55Z" fill="white" stroke="#263238" stroke-width="0.25" stroke-miterlimit="10" stroke-linecap="round" stroke-linejoin="round"/>
<path d="M188.749 366.305L195.016 364.272L197.941 364.237L191.693 366.277L188.749 366.305Z" fill="white" stroke="#263238" stroke-width="0.25" stroke-miterlimit="10" stroke-linecap="round" stroke-linejoin="round"/>
<path d="M180.043 366.388L186.362 364.376L189.226 364.342L182.924 366.361L180.043 366.388Z" fill="white" stroke="#263238" stroke-width="0.25" stroke-miterlimit="10" stroke-linecap="round" stroke-linejoin="round"/>
<path d="M191.693 366.277L197.941 364.237L200.887 364.202L194.658 366.248L191.693 366.277Z" fill="white" stroke="#263238" stroke-width="0.25" stroke-miterlimit="10" stroke-linecap="round" stroke-linejoin="round"/>
<path d="M194.658 366.248L200.887 364.202L203.853 364.167L197.644 366.22L194.658 366.248Z" fill="white" stroke="#263238" stroke-width="0.25" stroke-miterlimit="10" stroke-linecap="round" stroke-linejoin="round"/>
<path d="M182.924 366.361L189.226 364.342L192.111 364.307L185.827 366.333L182.924 366.361Z" fill="white" stroke="#263238" stroke-width="0.25" stroke-miterlimit="10" stroke-linecap="round" stroke-linejoin="round"/>
<path d="M165.932 366.524L172.331 364.544L175.099 364.511L168.715 366.497L165.932 366.524Z" fill="white" stroke="#263238" stroke-width="0.25" stroke-miterlimit="10" stroke-linecap="round" stroke-linejoin="round"/>
<path d="M168.715 366.497L175.099 364.511L177.886 364.477L171.517 366.47L168.715 366.497Z" fill="white" stroke="#263238" stroke-width="0.25" stroke-miterlimit="10" stroke-linecap="round" stroke-linejoin="round"/>
<path d="M174.339 366.443L180.691 364.444L183.517 364.41L177.181 366.416L174.339 366.443Z" fill="white" stroke="#263238" stroke-width="0.25" stroke-miterlimit="10" stroke-linecap="round" stroke-linejoin="round"/>
<path d="M150.309 372.225L153.154 372.217L156.019 372.21L158.904 372.203L161.811 372.195L164.739 372.188L167.689 372.18L170.66 372.173L173.654 372.165L176.669 372.158L179.707 372.15L173.406 374.233H170.351H167.318H164.309H161.322H158.356H155.413H152.492H149.592H146.713H143.855L150.309 372.225Z" fill="white" stroke="#263238" stroke-width="0.25" stroke-miterlimit="10" stroke-linecap="round" stroke-linejoin="round"/>
<path d="M171.517 366.47L177.886 364.477L180.691 364.444L174.339 366.443L171.517 366.47Z" fill="white" stroke="#263238" stroke-width="0.25" stroke-miterlimit="10" stroke-linecap="round" stroke-linejoin="round"/>
<path d="M228.045 363.038V365.076L187.202 379.181L187.186 376.571L228.045 363.038Z" fill="white" stroke="#263238" stroke-miterlimit="10" stroke-linecap="round" stroke-linejoin="round"/>
<path d="M115.52 379.181H187.185V376.571H115.52V379.181Z" fill="#263238" stroke="#263238" stroke-miterlimit="10" stroke-linecap="round" stroke-linejoin="round"/>
<path d="M211.462 266.515L195.797 242.62L180.132 266.515H186.688V302.638H204.905V266.515H211.462Z" fill="#2FC765" stroke="#263238" stroke-miterlimit="10" stroke-linecap="round" stroke-linejoin="round"/>
</svg>
